<mxfile host="app.diagrams.net" agent="Mozilla/5.0 (X11; Ubuntu; Linux x86_64; rv:130.0) Gecko/20100101 Firefox/130.0" version="24.7.7">
  <diagram name="Page-1" id="Z6gb0_KSrEABv9Jm1-kw">
    <mxGraphModel dx="1364" dy="2055" grid="1" gridSize="10" guides="1" tooltips="1" connect="1" arrows="1" fold="1" page="1" pageScale="1" pageWidth="827" pageHeight="1169" math="0" shadow="0">
      <root>
        <mxCell id="0" />
        <mxCell id="1" parent="0" />
        <mxCell id="n09aio_ZxcxyVlvb_FAy-2" value="&lt;div&gt;RasterStack&lt;/div&gt;" style="swimlane;fontStyle=1;align=center;verticalAlign=top;childLayout=stackLayout;horizontal=1;startSize=26;horizontalStack=0;resizeParent=1;resizeParentMax=0;resizeLast=0;collapsible=1;marginBottom=0;whiteSpace=wrap;html=1;" parent="1" vertex="1">
          <mxGeometry x="94" y="700" width="160" height="140" as="geometry" />
        </mxCell>
        <mxCell id="Zex_I4kqIBt21-otJFnS-11" value="" style="line;strokeWidth=1;fillColor=none;align=left;verticalAlign=middle;spacingTop=-1;spacingLeft=3;spacingRight=3;rotatable=0;labelPosition=right;points=[];portConstraint=eastwest;strokeColor=inherit;" parent="n09aio_ZxcxyVlvb_FAy-2" vertex="1">
          <mxGeometry y="26" width="160" height="8" as="geometry" />
        </mxCell>
        <mxCell id="Zex_I4kqIBt21-otJFnS-9" value="&lt;div&gt;+ nCell: int[]&lt;br&gt;&lt;/div&gt;&lt;div&gt;+ xy: data.frame&lt;/div&gt;&lt;div&gt;+ values: data.frame&lt;/div&gt;&lt;div&gt;+ variable.names: char[]&lt;/div&gt;&lt;div&gt;+ extent&lt;br&gt;&lt;/div&gt;" style="text;strokeColor=none;fillColor=none;align=left;verticalAlign=top;spacingLeft=4;spacingRight=4;overflow=hidden;rotatable=0;points=[[0,0.5],[1,0.5]];portConstraint=eastwest;whiteSpace=wrap;html=1;" parent="n09aio_ZxcxyVlvb_FAy-2" vertex="1">
          <mxGeometry y="34" width="160" height="106" as="geometry" />
        </mxCell>
        <mxCell id="n09aio_ZxcxyVlvb_FAy-6" value="geoEnvData" style="swimlane;fontStyle=1;align=center;verticalAlign=top;childLayout=stackLayout;horizontal=1;startSize=26;horizontalStack=0;resizeParent=1;resizeParentMax=0;resizeLast=0;collapsible=1;marginBottom=0;whiteSpace=wrap;html=1;" parent="1" vertex="1">
          <mxGeometry x="94" y="350" width="190" height="174" as="geometry" />
        </mxCell>
        <mxCell id="Zex_I4kqIBt21-otJFnS-4" value="&lt;div&gt;+ .:RasterStack&lt;br&gt;&lt;/div&gt;&lt;div&gt;&lt;div&gt;+ layerConnectionTypes:character&lt;br&gt;&lt;/div&gt;&lt;/div&gt;" style="text;strokeColor=none;fillColor=none;align=left;verticalAlign=top;spacingLeft=4;spacingRight=4;overflow=hidden;rotatable=0;points=[[0,0.5],[1,0.5]];portConstraint=eastwest;whiteSpace=wrap;html=1;" parent="n09aio_ZxcxyVlvb_FAy-6" vertex="1">
          <mxGeometry y="26" width="190" height="34" as="geometry" />
        </mxCell>
        <mxCell id="Zex_I4kqIBt21-otJFnS-7" value="" style="line;strokeWidth=1;fillColor=none;align=left;verticalAlign=middle;spacingTop=-1;spacingLeft=3;spacingRight=3;rotatable=0;labelPosition=right;points=[];portConstraint=eastwest;strokeColor=inherit;" parent="n09aio_ZxcxyVlvb_FAy-6" vertex="1">
          <mxGeometry y="60" width="190" height="8" as="geometry" />
        </mxCell>
        <mxCell id="n09aio_ZxcxyVlvb_FAy-9" value="&lt;div&gt;+ NAcells: int[]&lt;br&gt;&lt;/div&gt;&lt;div&gt;+ Acells: int[]&lt;/div&gt;&lt;div&gt;+ xyA: data.frame&lt;/div&gt;&lt;div&gt;+ nCellA:int&lt;/div&gt;&lt;div&gt;+ valuesA: data.frame&lt;/div&gt;&lt;div&gt;+ variable.names: char[]&lt;/div&gt;&lt;div&gt;+ show&lt;br&gt;&lt;/div&gt;" style="text;strokeColor=none;fillColor=none;align=left;verticalAlign=top;spacingLeft=4;spacingRight=4;overflow=hidden;rotatable=0;points=[[0,0.5],[1,0.5]];portConstraint=eastwest;whiteSpace=wrap;html=1;" parent="n09aio_ZxcxyVlvb_FAy-6" vertex="1">
          <mxGeometry y="68" width="190" height="106" as="geometry" />
        </mxCell>
        <mxCell id="n09aio_ZxcxyVlvb_FAy-16" value="Extends" style="endArrow=block;endSize=16;endFill=0;html=1;rounded=0;entryX=0.5;entryY=0;entryDx=0;entryDy=0;exitX=0.508;exitY=1.021;exitDx=0;exitDy=0;exitPerimeter=0;" parent="1" source="n09aio_ZxcxyVlvb_FAy-9" target="n09aio_ZxcxyVlvb_FAy-2" edge="1">
          <mxGeometry width="160" relative="1" as="geometry">
            <mxPoint x="84" y="620" as="sourcePoint" />
            <mxPoint x="244" y="620" as="targetPoint" />
          </mxGeometry>
        </mxCell>
        <mxCell id="n09aio_ZxcxyVlvb_FAy-24" value="socioecoGroupsData" style="swimlane;fontStyle=1;align=center;verticalAlign=top;childLayout=stackLayout;horizontal=1;startSize=26;horizontalStack=0;resizeParent=1;resizeParentMax=0;resizeLast=0;collapsible=1;marginBottom=0;whiteSpace=wrap;html=1;" parent="1" vertex="1">
          <mxGeometry x="394" y="350" width="170" height="150" as="geometry" />
        </mxCell>
        <mxCell id="n09aio_ZxcxyVlvb_FAy-25" value="+ .: list[[socioecoGroupData]]" style="text;strokeColor=none;fillColor=none;align=left;verticalAlign=top;spacingLeft=4;spacingRight=4;overflow=hidden;rotatable=0;points=[[0,0.5],[1,0.5]];portConstraint=eastwest;whiteSpace=wrap;html=1;" parent="n09aio_ZxcxyVlvb_FAy-24" vertex="1">
          <mxGeometry y="26" width="170" height="26" as="geometry" />
        </mxCell>
        <mxCell id="n09aio_ZxcxyVlvb_FAy-26" value="" style="line;strokeWidth=1;fillColor=none;align=left;verticalAlign=middle;spacingTop=-1;spacingLeft=3;spacingRight=3;rotatable=0;labelPosition=right;points=[];portConstraint=eastwest;strokeColor=inherit;" parent="n09aio_ZxcxyVlvb_FAy-24" vertex="1">
          <mxGeometry y="52" width="170" height="8" as="geometry" />
        </mxCell>
        <mxCell id="n09aio_ZxcxyVlvb_FAy-27" value="&lt;div&gt;+ show&lt;/div&gt;&lt;div&gt;+ categories&lt;/div&gt;&lt;div&gt;+ variable.names&lt;br&gt;&lt;/div&gt;&lt;div&gt;&lt;div&gt;+ Acells: list[[int[]]]&lt;/div&gt;&lt;/div&gt;&lt;div&gt;+ nCellA:int&lt;/div&gt;" style="text;strokeColor=none;fillColor=none;align=left;verticalAlign=top;spacingLeft=4;spacingRight=4;overflow=hidden;rotatable=0;points=[[0,0.5],[1,0.5]];portConstraint=eastwest;whiteSpace=wrap;html=1;" parent="n09aio_ZxcxyVlvb_FAy-24" vertex="1">
          <mxGeometry y="60" width="170" height="90" as="geometry" />
        </mxCell>
        <mxCell id="n09aio_ZxcxyVlvb_FAy-28" value="list" style="swimlane;fontStyle=1;align=center;verticalAlign=top;childLayout=stackLayout;horizontal=1;startSize=26;horizontalStack=0;resizeParent=1;resizeParentMax=0;resizeLast=0;collapsible=1;marginBottom=0;whiteSpace=wrap;html=1;" parent="1" vertex="1">
          <mxGeometry x="502" y="680" width="160" height="34" as="geometry" />
        </mxCell>
        <mxCell id="n09aio_ZxcxyVlvb_FAy-29" value="" style="line;strokeWidth=1;fillColor=none;align=left;verticalAlign=middle;spacingTop=-1;spacingLeft=3;spacingRight=3;rotatable=0;labelPosition=right;points=[];portConstraint=eastwest;strokeColor=inherit;" parent="n09aio_ZxcxyVlvb_FAy-28" vertex="1">
          <mxGeometry y="26" width="160" height="8" as="geometry" />
        </mxCell>
        <mxCell id="n09aio_ZxcxyVlvb_FAy-30" value="Extends" style="endArrow=block;endSize=16;endFill=0;html=1;rounded=0;exitX=0.5;exitY=1;exitDx=0;exitDy=0;" parent="1" source="n09aio_ZxcxyVlvb_FAy-24" target="n09aio_ZxcxyVlvb_FAy-28" edge="1">
          <mxGeometry width="160" relative="1" as="geometry">
            <mxPoint x="514" y="550" as="sourcePoint" />
            <mxPoint x="394" y="600" as="targetPoint" />
          </mxGeometry>
        </mxCell>
        <mxCell id="n09aio_ZxcxyVlvb_FAy-31" value="" style="endArrow=diamondThin;endFill=0;endSize=24;html=1;rounded=0;exitX=0.5;exitY=1;exitDx=0;exitDy=0;" parent="1" source="n09aio_ZxcxyVlvb_FAy-24" target="euh3f-BjxaFIM77-lD3N-1" edge="1">
          <mxGeometry width="160" relative="1" as="geometry">
            <mxPoint x="514" y="610" as="sourcePoint" />
            <mxPoint x="394" y="580" as="targetPoint" />
          </mxGeometry>
        </mxCell>
        <mxCell id="n09aio_ZxcxyVlvb_FAy-32" value="socioecoGeoData" style="swimlane;fontStyle=1;align=center;verticalAlign=top;childLayout=stackLayout;horizontal=1;startSize=26;horizontalStack=0;resizeParent=1;resizeParentMax=0;resizeLast=0;collapsible=1;marginBottom=0;whiteSpace=wrap;html=1;" parent="1" vertex="1">
          <mxGeometry x="210" y="196" width="160" height="120" as="geometry" />
        </mxCell>
        <mxCell id="n09aio_ZxcxyVlvb_FAy-33" value="&lt;div&gt;+&amp;nbsp;socioecoGroupDataList&lt;/div&gt;&lt;div&gt;+ geoEnvData&lt;/div&gt;" style="text;strokeColor=none;fillColor=none;align=left;verticalAlign=top;spacingLeft=4;spacingRight=4;overflow=hidden;rotatable=0;points=[[0,0.5],[1,0.5]];portConstraint=eastwest;whiteSpace=wrap;html=1;" parent="n09aio_ZxcxyVlvb_FAy-32" vertex="1">
          <mxGeometry y="26" width="160" height="44" as="geometry" />
        </mxCell>
        <mxCell id="n09aio_ZxcxyVlvb_FAy-34" value="" style="line;strokeWidth=1;fillColor=none;align=left;verticalAlign=middle;spacingTop=-1;spacingLeft=3;spacingRight=3;rotatable=0;labelPosition=right;points=[];portConstraint=eastwest;strokeColor=inherit;" parent="n09aio_ZxcxyVlvb_FAy-32" vertex="1">
          <mxGeometry y="70" width="160" height="8" as="geometry" />
        </mxCell>
        <mxCell id="n09aio_ZxcxyVlvb_FAy-35" value="&lt;div&gt;+ extent(): int&lt;/div&gt;&lt;div&gt;+ dim&lt;br&gt;&lt;/div&gt;" style="text;strokeColor=none;fillColor=none;align=left;verticalAlign=top;spacingLeft=4;spacingRight=4;overflow=hidden;rotatable=0;points=[[0,0.5],[1,0.5]];portConstraint=eastwest;whiteSpace=wrap;html=1;" parent="n09aio_ZxcxyVlvb_FAy-32" vertex="1">
          <mxGeometry y="78" width="160" height="42" as="geometry" />
        </mxCell>
        <mxCell id="euh3f-BjxaFIM77-lD3N-1" value="socioecoGroupData" style="swimlane;fontStyle=1;align=center;verticalAlign=top;childLayout=stackLayout;horizontal=1;startSize=26;horizontalStack=0;resizeParent=1;resizeParentMax=0;resizeLast=0;collapsible=1;marginBottom=0;whiteSpace=wrap;html=1;" parent="1" vertex="1">
          <mxGeometry x="304" y="590" width="180" height="128" as="geometry" />
        </mxCell>
        <mxCell id="euh3f-BjxaFIM77-lD3N-2" value="&lt;div&gt;+ groupValues: rasterStack[,]&lt;/div&gt;&lt;div&gt;+ groupNames: char[]&lt;/div&gt;" style="text;strokeColor=none;fillColor=none;align=left;verticalAlign=top;spacingLeft=4;spacingRight=4;overflow=hidden;rotatable=0;points=[[0,0.5],[1,0.5]];portConstraint=eastwest;whiteSpace=wrap;html=1;" parent="euh3f-BjxaFIM77-lD3N-1" vertex="1">
          <mxGeometry y="26" width="180" height="34" as="geometry" />
        </mxCell>
        <mxCell id="euh3f-BjxaFIM77-lD3N-3" value="" style="line;strokeWidth=1;fillColor=none;align=left;verticalAlign=middle;spacingTop=-1;spacingLeft=3;spacingRight=3;rotatable=0;labelPosition=right;points=[];portConstraint=eastwest;strokeColor=inherit;" parent="euh3f-BjxaFIM77-lD3N-1" vertex="1">
          <mxGeometry y="60" width="180" height="8" as="geometry" />
        </mxCell>
        <mxCell id="euh3f-BjxaFIM77-lD3N-4" value="&lt;div&gt;+ Acells: int[]&lt;/div&gt;&lt;div&gt;+ valuesA: data.frame&lt;/div&gt;&lt;div&gt;+ variable.names: char[]&lt;br&gt;&lt;/div&gt;" style="text;strokeColor=none;fillColor=none;align=left;verticalAlign=top;spacingLeft=4;spacingRight=4;overflow=hidden;rotatable=0;points=[[0,0.5],[1,0.5]];portConstraint=eastwest;whiteSpace=wrap;html=1;" parent="euh3f-BjxaFIM77-lD3N-1" vertex="1">
          <mxGeometry y="68" width="180" height="60" as="geometry" />
        </mxCell>
        <mxCell id="euh3f-BjxaFIM77-lD3N-5" value="nicheModel" style="swimlane;fontStyle=1;align=center;verticalAlign=top;childLayout=stackLayout;horizontal=1;startSize=26;horizontalStack=0;resizeParent=1;resizeParentMax=0;resizeLast=0;collapsible=1;marginBottom=0;whiteSpace=wrap;html=1;" parent="1" vertex="1">
          <mxGeometry x="260" y="-115" width="170" height="130" as="geometry" />
        </mxCell>
        <mxCell id="euh3f-BjxaFIM77-lD3N-6" value="&lt;div&gt;+ varNiche: char[]&lt;br&gt;+ pNiche:char[]&lt;/div&gt;&lt;div&gt;&lt;div&gt;+ reactionNorms: shape[] &lt;br&gt;+ priorPNiche=prior[]&lt;/div&gt;&lt;div&gt;&lt;br&gt;&lt;/div&gt;&lt;div&gt;&lt;br&gt;&lt;br&gt;&lt;/div&gt;&lt;/div&gt;" style="text;strokeColor=none;fillColor=none;align=left;verticalAlign=top;spacingLeft=4;spacingRight=4;overflow=hidden;rotatable=0;points=[[0,0.5],[1,0.5]];portConstraint=eastwest;whiteSpace=wrap;html=1;" parent="euh3f-BjxaFIM77-lD3N-5" vertex="1">
          <mxGeometry y="26" width="170" height="64" as="geometry" />
        </mxCell>
        <mxCell id="euh3f-BjxaFIM77-lD3N-7" value="" style="line;strokeWidth=1;fillColor=none;align=left;verticalAlign=middle;spacingTop=-1;spacingLeft=3;spacingRight=3;rotatable=0;labelPosition=right;points=[];portConstraint=eastwest;strokeColor=inherit;" parent="euh3f-BjxaFIM77-lD3N-5" vertex="1">
          <mxGeometry y="90" width="170" height="8" as="geometry" />
        </mxCell>
        <mxCell id="euh3f-BjxaFIM77-lD3N-8" value="+ samplePriors(): pMig" style="text;strokeColor=none;fillColor=none;align=left;verticalAlign=top;spacingLeft=4;spacingRight=4;overflow=hidden;rotatable=0;points=[[0,0.5],[1,0.5]];portConstraint=eastwest;whiteSpace=wrap;html=1;" parent="euh3f-BjxaFIM77-lD3N-5" vertex="1">
          <mxGeometry y="98" width="170" height="32" as="geometry" />
        </mxCell>
        <mxCell id="euh3f-BjxaFIM77-lD3N-13" value="npNiche: int[]" style="html=1;whiteSpace=wrap;" parent="1" vertex="1">
          <mxGeometry x="634" y="370" width="110" height="50" as="geometry" />
        </mxCell>
        <mxCell id="euh3f-BjxaFIM77-lD3N-15" value="reactNorms: char[]" style="html=1;whiteSpace=wrap;" parent="1" vertex="1">
          <mxGeometry x="634" y="430" width="110" height="50" as="geometry" />
        </mxCell>
        <mxCell id="euh3f-BjxaFIM77-lD3N-16" value="migrationShapes: char[]" style="html=1;whiteSpace=wrap;" parent="1" vertex="1">
          <mxGeometry x="634" y="490" width="110" height="50" as="geometry" />
        </mxCell>
        <mxCell id="euh3f-BjxaFIM77-lD3N-17" value="npMig: int[]" style="html=1;whiteSpace=wrap;" parent="1" vertex="1">
          <mxGeometry x="634" y="550" width="110" height="50" as="geometry" />
        </mxCell>
        <mxCell id="euh3f-BjxaFIM77-lD3N-23" value="geoMigrationModel" style="swimlane;fontStyle=1;align=center;verticalAlign=top;childLayout=stackLayout;horizontal=1;startSize=26;horizontalStack=0;resizeParent=1;resizeParentMax=0;resizeLast=0;collapsible=1;marginBottom=0;whiteSpace=wrap;html=1;" parent="1" vertex="1">
          <mxGeometry x="445" y="-115" width="170" height="170" as="geometry" />
        </mxCell>
        <mxCell id="euh3f-BjxaFIM77-lD3N-24" value="&lt;div&gt;modelConnectionType=char[]&lt;/div&gt;&lt;div&gt;+varMig=char[]&lt;/div&gt;&lt;div&gt;+shapeMig=char[]&lt;/div&gt;&lt;div&gt;+pMig=list[float[]]&lt;/div&gt;&lt;div&gt;+pMixt=float[]&lt;/div&gt;&lt;div&gt;+priorsPMig=prior[]&lt;/div&gt;&lt;div&gt;+priorsPMixt=prior[]&lt;/div&gt;" style="text;strokeColor=none;fillColor=none;align=left;verticalAlign=top;spacingLeft=4;spacingRight=4;overflow=hidden;rotatable=0;points=[[0,0.5],[1,0.5]];portConstraint=eastwest;whiteSpace=wrap;html=1;" parent="euh3f-BjxaFIM77-lD3N-23" vertex="1">
          <mxGeometry y="26" width="170" height="104" as="geometry" />
        </mxCell>
        <mxCell id="euh3f-BjxaFIM77-lD3N-25" value="" style="line;strokeWidth=1;fillColor=none;align=left;verticalAlign=middle;spacingTop=-1;spacingLeft=3;spacingRight=3;rotatable=0;labelPosition=right;points=[];portConstraint=eastwest;strokeColor=inherit;" parent="euh3f-BjxaFIM77-lD3N-23" vertex="1">
          <mxGeometry y="130" width="170" height="8" as="geometry" />
        </mxCell>
        <mxCell id="euh3f-BjxaFIM77-lD3N-26" value="+ samplePriors(): (pMix,pMig)" style="text;strokeColor=none;fillColor=none;align=left;verticalAlign=top;spacingLeft=4;spacingRight=4;overflow=hidden;rotatable=0;points=[[0,0.5],[1,0.5]];portConstraint=eastwest;whiteSpace=wrap;html=1;" parent="euh3f-BjxaFIM77-lD3N-23" vertex="1">
          <mxGeometry y="138" width="170" height="32" as="geometry" />
        </mxCell>
        <mxCell id="euh3f-BjxaFIM77-lD3N-28" value="socioecoGeoDataHistoryAndSample" style="swimlane;fontStyle=1;align=center;verticalAlign=top;childLayout=stackLayout;horizontal=1;startSize=26;horizontalStack=0;resizeParent=1;resizeParentMax=0;resizeLast=0;collapsible=1;marginBottom=0;whiteSpace=wrap;html=1;" parent="1" vertex="1">
          <mxGeometry x="10" y="-110" width="220" height="224" as="geometry" />
        </mxCell>
        <mxCell id="euh3f-BjxaFIM77-lD3N-29" value="&lt;div&gt;+ .: socioecoGeoData&lt;/div&gt;&lt;div&gt;+ pastsocioecoGeoData: &quot;list(sociogeoData)&quot;&lt;br&gt;&lt;/div&gt;&lt;div&gt;+ parsingTImes: &quot;float&quot;&lt;/div&gt;&lt;div&gt;+timeUnit: &quot;char&quot;&lt;/div&gt;&lt;div&gt;+zeroTime: &quot;POSIXlk&quot;&lt;/div&gt;&lt;div&gt;+sampledCells: list[[sampletimes,sampleCellNo:list[[int]] ]]&lt;/div&gt;&lt;div&gt;+historical: binary&lt;br&gt;&lt;/div&gt;&lt;div align=&quot;left&quot;&gt;&lt;font color=&quot;#ff0000&quot;&gt;+ genetObs: genetData&lt;/font&gt;&lt;br&gt;&lt;/div&gt;&lt;div&gt;&lt;br&gt;&lt;/div&gt;&lt;div&gt;&lt;br&gt;&lt;/div&gt;" style="text;strokeColor=none;fillColor=none;align=left;verticalAlign=top;spacingLeft=4;spacingRight=4;overflow=hidden;rotatable=0;points=[[0,0.5],[1,0.5]];portConstraint=eastwest;whiteSpace=wrap;html=1;" parent="euh3f-BjxaFIM77-lD3N-28" vertex="1">
          <mxGeometry y="26" width="220" height="164" as="geometry" />
        </mxCell>
        <mxCell id="euh3f-BjxaFIM77-lD3N-30" value="" style="line;strokeWidth=1;fillColor=none;align=left;verticalAlign=middle;spacingTop=-1;spacingLeft=3;spacingRight=3;rotatable=0;labelPosition=right;points=[];portConstraint=eastwest;strokeColor=inherit;" parent="euh3f-BjxaFIM77-lD3N-28" vertex="1">
          <mxGeometry y="190" width="220" height="8" as="geometry" />
        </mxCell>
        <mxCell id="euh3f-BjxaFIM77-lD3N-31" value="+ sample(): sampledCells" style="text;strokeColor=none;fillColor=none;align=left;verticalAlign=top;spacingLeft=4;spacingRight=4;overflow=hidden;rotatable=0;points=[[0,0.5],[1,0.5]];portConstraint=eastwest;whiteSpace=wrap;html=1;" parent="euh3f-BjxaFIM77-lD3N-28" vertex="1">
          <mxGeometry y="198" width="220" height="26" as="geometry" />
        </mxCell>
        <mxCell id="euh3f-BjxaFIM77-lD3N-33" value="" style="endArrow=diamondThin;endFill=0;endSize=24;html=1;rounded=0;entryX=0.153;entryY=0;entryDx=0;entryDy=0;entryPerimeter=0;" parent="1" source="n09aio_ZxcxyVlvb_FAy-32" target="n09aio_ZxcxyVlvb_FAy-24" edge="1">
          <mxGeometry width="160" relative="1" as="geometry">
            <mxPoint x="314" y="310" as="sourcePoint" />
            <mxPoint x="184" y="410" as="targetPoint" />
          </mxGeometry>
        </mxCell>
        <mxCell id="euh3f-BjxaFIM77-lD3N-34" value="" style="endArrow=diamondThin;endFill=0;endSize=24;html=1;rounded=0;" parent="1" source="euh3f-BjxaFIM77-lD3N-31" target="n09aio_ZxcxyVlvb_FAy-32" edge="1">
          <mxGeometry width="160" relative="1" as="geometry">
            <mxPoint x="330" y="332" as="sourcePoint" />
            <mxPoint x="245" y="196" as="targetPoint" />
          </mxGeometry>
        </mxCell>
        <mxCell id="euh3f-BjxaFIM77-lD3N-35" value="socioecoGeoDataModel" style="swimlane;fontStyle=1;align=center;verticalAlign=top;childLayout=stackLayout;horizontal=1;startSize=26;horizontalStack=0;resizeParent=1;resizeParentMax=0;resizeLast=0;collapsible=1;marginBottom=0;whiteSpace=wrap;html=1;" parent="1" vertex="1">
          <mxGeometry x="324" y="-322" width="210" height="170" as="geometry" />
        </mxCell>
        <mxCell id="euh3f-BjxaFIM77-lD3N-36" value="&lt;div&gt;+ Kmodel:nicheModel&lt;br&gt;&lt;/div&gt;&lt;div&gt;+ Rmodel:nicheModel&lt;/div&gt;&lt;div&gt;+ geoMigModel: geoMigModel&lt;br&gt;&lt;/div&gt;" style="text;strokeColor=none;fillColor=none;align=left;verticalAlign=top;spacingLeft=4;spacingRight=4;overflow=hidden;rotatable=0;points=[[0,0.5],[1,0.5]];portConstraint=eastwest;whiteSpace=wrap;html=1;" parent="euh3f-BjxaFIM77-lD3N-35" vertex="1">
          <mxGeometry y="26" width="210" height="64" as="geometry" />
        </mxCell>
        <mxCell id="euh3f-BjxaFIM77-lD3N-37" value="" style="line;strokeWidth=1;fillColor=none;align=left;verticalAlign=middle;spacingTop=-1;spacingLeft=3;spacingRight=3;rotatable=0;labelPosition=right;points=[];portConstraint=eastwest;strokeColor=inherit;" parent="euh3f-BjxaFIM77-lD3N-35" vertex="1">
          <mxGeometry y="90" width="210" height="8" as="geometry" />
        </mxCell>
        <mxCell id="euh3f-BjxaFIM77-lD3N-38" value="&lt;div&gt;&lt;div&gt;+ buildRKlandscape(): ..&lt;/div&gt;&lt;div&gt;+ buildGeodist(): float[,]&lt;br&gt;&lt;/div&gt;&lt;div&gt;+ buildMigrationMAtrix(): float[,]&lt;/div&gt;+ buildRKlandscape(): RasterStack&lt;/div&gt;" style="text;strokeColor=none;fillColor=none;align=left;verticalAlign=top;spacingLeft=4;spacingRight=4;overflow=hidden;rotatable=0;points=[[0,0.5],[1,0.5]];portConstraint=eastwest;whiteSpace=wrap;html=1;" parent="euh3f-BjxaFIM77-lD3N-35" vertex="1">
          <mxGeometry y="98" width="210" height="72" as="geometry" />
        </mxCell>
        <mxCell id="euh3f-BjxaFIM77-lD3N-40" value="Extends" style="endArrow=block;endSize=16;endFill=0;html=1;rounded=0;entryX=0.5;entryY=0;entryDx=0;entryDy=0;" parent="1" source="euh3f-BjxaFIM77-lD3N-38" target="euh3f-BjxaFIM77-lD3N-28" edge="1">
          <mxGeometry width="160" relative="1" as="geometry">
            <mxPoint x="394" y="50" as="sourcePoint" />
            <mxPoint x="554" y="50" as="targetPoint" />
          </mxGeometry>
        </mxCell>
        <mxCell id="euh3f-BjxaFIM77-lD3N-42" value="" style="endArrow=diamondThin;endFill=0;endSize=24;html=1;rounded=0;" parent="1" source="euh3f-BjxaFIM77-lD3N-35" target="euh3f-BjxaFIM77-lD3N-23" edge="1">
          <mxGeometry width="160" relative="1" as="geometry">
            <mxPoint x="485" y="-6" as="sourcePoint" />
            <mxPoint x="505" y="180" as="targetPoint" />
          </mxGeometry>
        </mxCell>
        <mxCell id="euh3f-BjxaFIM77-lD3N-45" value="" style="endArrow=diamondThin;endFill=1;endSize=24;html=1;rounded=0;" parent="1" source="euh3f-BjxaFIM77-lD3N-35" target="euh3f-BjxaFIM77-lD3N-5" edge="1">
          <mxGeometry width="160" relative="1" as="geometry">
            <mxPoint x="394" y="110" as="sourcePoint" />
            <mxPoint x="494" y="170" as="targetPoint" />
          </mxGeometry>
        </mxCell>
        <mxCell id="euh3f-BjxaFIM77-lD3N-46" value="" style="endArrow=diamondThin;endFill=0;endSize=24;html=1;rounded=0;" parent="1" source="euh3f-BjxaFIM77-lD3N-1" target="n09aio_ZxcxyVlvb_FAy-2" edge="1">
          <mxGeometry width="160" relative="1" as="geometry">
            <mxPoint x="224" y="600" as="sourcePoint" />
            <mxPoint x="432" y="600" as="targetPoint" />
          </mxGeometry>
        </mxCell>
        <mxCell id="Zex_I4kqIBt21-otJFnS-1" value="Extends" style="endArrow=block;endSize=16;endFill=0;html=1;rounded=0;entryX=0.5;entryY=0;entryDx=0;entryDy=0;" parent="1" source="euh3f-BjxaFIM77-lD3N-31" target="n09aio_ZxcxyVlvb_FAy-32" edge="1">
          <mxGeometry width="160" relative="1" as="geometry">
            <mxPoint x="295.07792207792204" y="129" as="sourcePoint" />
            <mxPoint x="283" y="191" as="targetPoint" />
          </mxGeometry>
        </mxCell>
        <mxCell id="Zex_I4kqIBt21-otJFnS-8" value="Extends" style="endArrow=block;endSize=16;endFill=0;html=1;rounded=0;" parent="1" source="n09aio_ZxcxyVlvb_FAy-32" target="n09aio_ZxcxyVlvb_FAy-6" edge="1">
          <mxGeometry width="160" relative="1" as="geometry">
            <mxPoint x="313" y="134" as="sourcePoint" />
            <mxPoint x="154" y="240" as="targetPoint" />
          </mxGeometry>
        </mxCell>
        <mxCell id="HW8FJVynJS46o8FaBS7P-1" value="envelope&#xa;enveLinear&#xa;scaling&#xa;conQuadratic&#xa;conQuadraticSkewed&#xa;&#xa;" style="text;whiteSpace=wrap;" parent="1" vertex="1">
          <mxGeometry x="674" y="720" width="140" height="40" as="geometry" />
        </mxCell>
        <mxCell id="mUlPBs0OehojVBWcTJut-1" value="envDynSet" style="swimlane;fontStyle=1;align=center;verticalAlign=top;childLayout=stackLayout;horizontal=1;startSize=26;horizontalStack=0;resizeParent=1;resizeParentMax=0;resizeLast=0;collapsible=1;marginBottom=0;whiteSpace=wrap;html=1;" parent="1" vertex="1">
          <mxGeometry x="600.5" y="-444" width="200" height="164" as="geometry" />
        </mxCell>
        <mxCell id="mUlPBs0OehojVBWcTJut-2" value="&lt;div&gt;+ .Data: socioecoGeoDataModel&lt;br&gt;&lt;/div&gt;&lt;div&gt;+ RKLandscape: RasterStack&lt;/div&gt;&lt;div&gt;&lt;div&gt;+ geoDist: float[,]&lt;/div&gt;+ mgrationMatrix: float[,]&lt;/div&gt;+ transitionForward: float[,]&lt;div&gt;+ transitionBackward: float[,]&lt;/div&gt;&lt;div&gt;+ coordinates: coord&lt;br&gt;&lt;/div&gt;&lt;br&gt;&lt;div&gt;&lt;br&gt;&lt;/div&gt;&lt;div&gt;&lt;br&gt;&lt;/div&gt;" style="text;strokeColor=none;fillColor=none;align=left;verticalAlign=top;spacingLeft=4;spacingRight=4;overflow=hidden;rotatable=0;points=[[0,0.5],[1,0.5]];portConstraint=eastwest;whiteSpace=wrap;html=1;" parent="mUlPBs0OehojVBWcTJut-1" vertex="1">
          <mxGeometry y="26" width="200" height="104" as="geometry" />
        </mxCell>
        <mxCell id="mUlPBs0OehojVBWcTJut-3" value="" style="line;strokeWidth=1;fillColor=none;align=left;verticalAlign=middle;spacingTop=-1;spacingLeft=3;spacingRight=3;rotatable=0;labelPosition=right;points=[];portConstraint=eastwest;strokeColor=inherit;" parent="mUlPBs0OehojVBWcTJut-1" vertex="1">
          <mxGeometry y="130" width="200" height="8" as="geometry" />
        </mxCell>
        <mxCell id="mUlPBs0OehojVBWcTJut-4" value="+ method(type): type" style="text;strokeColor=none;fillColor=none;align=left;verticalAlign=top;spacingLeft=4;spacingRight=4;overflow=hidden;rotatable=0;points=[[0,0.5],[1,0.5]];portConstraint=eastwest;whiteSpace=wrap;html=1;" parent="mUlPBs0OehojVBWcTJut-1" vertex="1">
          <mxGeometry y="138" width="200" height="26" as="geometry" />
        </mxCell>
        <mxCell id="mUlPBs0OehojVBWcTJut-6" value="Extends" style="endArrow=block;endSize=16;endFill=0;html=1;rounded=0;" parent="1" source="mUlPBs0OehojVBWcTJut-1" target="euh3f-BjxaFIM77-lD3N-35" edge="1">
          <mxGeometry width="160" relative="1" as="geometry">
            <mxPoint x="454" y="-34" as="sourcePoint" />
            <mxPoint x="334" y="-20" as="targetPoint" />
          </mxGeometry>
        </mxCell>
        <mxCell id="_K4OWj6VhO3JEERv6Nd--14" value="" style="edgeStyle=orthogonalEdgeStyle;rounded=0;orthogonalLoop=1;jettySize=auto;html=1;" parent="1" source="_K4OWj6VhO3JEERv6Nd--1" target="_K4OWj6VhO3JEERv6Nd--10" edge="1">
          <mxGeometry relative="1" as="geometry" />
        </mxCell>
        <mxCell id="_K4OWj6VhO3JEERv6Nd--1" value="ecoGenetSim" style="swimlane;fontStyle=1;align=center;verticalAlign=top;childLayout=stackLayout;horizontal=1;startSize=26;horizontalStack=0;resizeParent=1;resizeParentMax=0;resizeLast=0;collapsible=1;marginBottom=0;whiteSpace=wrap;html=1;" parent="1" vertex="1">
          <mxGeometry x="89" y="-640" width="200" height="120" as="geometry" />
        </mxCell>
        <mxCell id="_K4OWj6VhO3JEERv6Nd--2" value="&lt;div&gt;+ coalescent: genealogy&lt;/div&gt;&lt;div&gt;&lt;font color=&quot;#ff3333&quot;&gt;+ genetSim: genetData&lt;/font&gt;&lt;br&gt;&lt;/div&gt;&lt;div&gt;&lt;br&gt;&lt;div&gt;&lt;br&gt;&lt;br&gt;&lt;/div&gt;&lt;/div&gt;" style="text;strokeColor=none;fillColor=none;align=left;verticalAlign=top;spacingLeft=4;spacingRight=4;overflow=hidden;rotatable=0;points=[[0,0.5],[1,0.5]];portConstraint=eastwest;whiteSpace=wrap;html=1;" parent="_K4OWj6VhO3JEERv6Nd--1" vertex="1">
          <mxGeometry y="26" width="200" height="44" as="geometry" />
        </mxCell>
        <mxCell id="_K4OWj6VhO3JEERv6Nd--3" value="" style="line;strokeWidth=1;fillColor=none;align=left;verticalAlign=middle;spacingTop=-1;spacingLeft=3;spacingRight=3;rotatable=0;labelPosition=right;points=[];portConstraint=eastwest;strokeColor=inherit;" parent="_K4OWj6VhO3JEERv6Nd--1" vertex="1">
          <mxGeometry y="70" width="200" height="8" as="geometry" />
        </mxCell>
        <mxCell id="_K4OWj6VhO3JEERv6Nd--4" value="&lt;div&gt;+ simulGenet(genealogy, mutationModel)&lt;br&gt;&lt;/div&gt;" style="text;strokeColor=none;fillColor=none;align=left;verticalAlign=top;spacingLeft=4;spacingRight=4;overflow=hidden;rotatable=0;points=[[0,0.5],[1,0.5]];portConstraint=eastwest;whiteSpace=wrap;html=1;" parent="_K4OWj6VhO3JEERv6Nd--1" vertex="1">
          <mxGeometry y="78" width="200" height="42" as="geometry" />
        </mxCell>
        <mxCell id="_K4OWj6VhO3JEERv6Nd--6" value="ecoCoalGraphs" style="swimlane;fontStyle=1;align=center;verticalAlign=top;childLayout=stackLayout;horizontal=1;startSize=26;horizontalStack=0;resizeParent=1;resizeParentMax=0;resizeLast=0;collapsible=1;marginBottom=0;whiteSpace=wrap;html=1;" parent="1" vertex="1">
          <mxGeometry x="89" y="-860" width="201" height="184" as="geometry" />
        </mxCell>
        <mxCell id="_K4OWj6VhO3JEERv6Nd--7" value="&lt;div&gt;+ linearizedFstGenet&lt;br&gt;&lt;/div&gt;&lt;div&gt;+ hitting_time_digraph:&lt;/div&gt;&lt;div&gt;&lt;div&gt;+ commute_time_digraph&lt;/div&gt;&lt;div&gt;+ linearizedFstDigraph (Nombre OK?)&lt;br&gt;&lt;div&gt;+ Collisionijk&lt;/div&gt;+ linearizedFstUndigraph (Nombre OK?)&lt;br&gt;&lt;br&gt;&lt;/div&gt;&lt;/div&gt;" style="text;strokeColor=none;fillColor=none;align=left;verticalAlign=top;spacingLeft=4;spacingRight=4;overflow=hidden;rotatable=0;points=[[0,0.5],[1,0.5]];portConstraint=eastwest;whiteSpace=wrap;html=1;" parent="_K4OWj6VhO3JEERv6Nd--6" vertex="1">
          <mxGeometry y="26" width="201" height="124" as="geometry" />
        </mxCell>
        <mxCell id="_K4OWj6VhO3JEERv6Nd--8" value="" style="line;strokeWidth=1;fillColor=none;align=left;verticalAlign=middle;spacingTop=-1;spacingLeft=3;spacingRight=3;rotatable=0;labelPosition=right;points=[];portConstraint=eastwest;strokeColor=inherit;" parent="_K4OWj6VhO3JEERv6Nd--6" vertex="1">
          <mxGeometry y="150" width="201" height="8" as="geometry" />
        </mxCell>
        <mxCell id="_K4OWj6VhO3JEERv6Nd--9" value="+ FstGenet(genet): float" style="text;strokeColor=none;fillColor=none;align=left;verticalAlign=top;spacingLeft=4;spacingRight=4;overflow=hidden;rotatable=0;points=[[0,0.5],[1,0.5]];portConstraint=eastwest;whiteSpace=wrap;html=1;" parent="_K4OWj6VhO3JEERv6Nd--6" vertex="1">
          <mxGeometry y="158" width="201" height="26" as="geometry" />
        </mxCell>
        <mxCell id="_K4OWj6VhO3JEERv6Nd--10" value="ecoCoalProb" style="swimlane;fontStyle=1;align=center;verticalAlign=top;childLayout=stackLayout;horizontal=1;startSize=26;horizontalStack=0;resizeParent=1;resizeParentMax=0;resizeLast=0;collapsible=1;marginBottom=0;whiteSpace=wrap;html=1;" parent="1" vertex="1">
          <mxGeometry x="350" y="-637" width="200" height="114" as="geometry" />
        </mxCell>
        <mxCell id="_K4OWj6VhO3JEERv6Nd--11" value="&lt;div&gt;+ coealescent&lt;/div&gt;&lt;div&gt;+ coalProb&lt;/div&gt;&lt;div&gt;&lt;div&gt;&lt;br&gt;&lt;/div&gt;&lt;div&gt;&lt;br&gt;&lt;br&gt;&lt;/div&gt;&lt;/div&gt;" style="text;strokeColor=none;fillColor=none;align=left;verticalAlign=top;spacingLeft=4;spacingRight=4;overflow=hidden;rotatable=0;points=[[0,0.5],[1,0.5]];portConstraint=eastwest;whiteSpace=wrap;html=1;" parent="_K4OWj6VhO3JEERv6Nd--10" vertex="1">
          <mxGeometry y="26" width="200" height="54" as="geometry" />
        </mxCell>
        <mxCell id="_K4OWj6VhO3JEERv6Nd--12" value="" style="line;strokeWidth=1;fillColor=none;align=left;verticalAlign=middle;spacingTop=-1;spacingLeft=3;spacingRight=3;rotatable=0;labelPosition=right;points=[];portConstraint=eastwest;strokeColor=inherit;" parent="_K4OWj6VhO3JEERv6Nd--10" vertex="1">
          <mxGeometry y="80" width="200" height="8" as="geometry" />
        </mxCell>
        <mxCell id="_K4OWj6VhO3JEERv6Nd--13" value="+ method(type): type" style="text;strokeColor=none;fillColor=none;align=left;verticalAlign=top;spacingLeft=4;spacingRight=4;overflow=hidden;rotatable=0;points=[[0,0.5],[1,0.5]];portConstraint=eastwest;whiteSpace=wrap;html=1;" parent="_K4OWj6VhO3JEERv6Nd--10" vertex="1">
          <mxGeometry y="88" width="200" height="26" as="geometry" />
        </mxCell>
        <mxCell id="fhYH8X8L3PKGoM4BoWbg-6" value="socioEcoMigrationModel" style="swimlane;fontStyle=1;align=center;verticalAlign=top;childLayout=stackLayout;horizontal=1;startSize=26;horizontalStack=0;resizeParent=1;resizeParentMax=0;resizeLast=0;collapsible=1;marginBottom=0;whiteSpace=wrap;html=1;" parent="1" vertex="1">
          <mxGeometry x="630.5" y="-115" width="170" height="160" as="geometry" />
        </mxCell>
        <mxCell id="fhYH8X8L3PKGoM4BoWbg-7" value="&lt;div&gt;+ weight=&quot;numeric&quot;&lt;/div&gt;&lt;div&gt;+ varMig=varMig[]&lt;br&gt;&lt;/div&gt;&lt;div&gt;+ pMig=&quot;list&quot;&lt;/div&gt;&lt;div&gt;&lt;div&gt;+ shapeMig=char[]&lt;/div&gt;&lt;/div&gt;&lt;div&gt;&lt;div&gt;+ priorpMig=prior[]&lt;/div&gt;&lt;/div&gt;" style="text;strokeColor=none;fillColor=none;align=left;verticalAlign=top;spacingLeft=4;spacingRight=4;overflow=hidden;rotatable=0;points=[[0,0.5],[1,0.5]];portConstraint=eastwest;whiteSpace=wrap;html=1;" parent="fhYH8X8L3PKGoM4BoWbg-6" vertex="1">
          <mxGeometry y="26" width="170" height="94" as="geometry" />
        </mxCell>
        <mxCell id="fhYH8X8L3PKGoM4BoWbg-8" value="" style="line;strokeWidth=1;fillColor=none;align=left;verticalAlign=middle;spacingTop=-1;spacingLeft=3;spacingRight=3;rotatable=0;labelPosition=right;points=[];portConstraint=eastwest;strokeColor=inherit;" parent="fhYH8X8L3PKGoM4BoWbg-6" vertex="1">
          <mxGeometry y="120" width="170" height="8" as="geometry" />
        </mxCell>
        <mxCell id="fhYH8X8L3PKGoM4BoWbg-9" value="+ samplePriors(): pMig" style="text;strokeColor=none;fillColor=none;align=left;verticalAlign=top;spacingLeft=4;spacingRight=4;overflow=hidden;rotatable=0;points=[[0,0.5],[1,0.5]];portConstraint=eastwest;whiteSpace=wrap;html=1;" parent="fhYH8X8L3PKGoM4BoWbg-6" vertex="1">
          <mxGeometry y="128" width="170" height="32" as="geometry" />
        </mxCell>
        <mxCell id="fhYH8X8L3PKGoM4BoWbg-10" value="" style="endArrow=diamondThin;endFill=0;endSize=24;html=1;rounded=0;entryX=0.5;entryY=0;entryDx=0;entryDy=0;" parent="1" source="euh3f-BjxaFIM77-lD3N-38" target="fhYH8X8L3PKGoM4BoWbg-6" edge="1">
          <mxGeometry width="160" relative="1" as="geometry">
            <mxPoint x="555" y="-10" as="sourcePoint" />
            <mxPoint x="547" y="160" as="targetPoint" />
          </mxGeometry>
        </mxCell>
        <mxCell id="c0SSLgtnGO3cboPd4Nja-5" value="marker: char[]" style="html=1;whiteSpace=wrap;" parent="1" vertex="1">
          <mxGeometry x="634" y="610" width="110" height="50" as="geometry" />
        </mxCell>
        <mxCell id="c0SSLgtnGO3cboPd4Nja-6" value="ecoCoaLikInf" style="swimlane;fontStyle=1;align=center;verticalAlign=top;childLayout=stackLayout;horizontal=1;startSize=26;horizontalStack=0;resizeParent=1;resizeParentMax=0;resizeLast=0;collapsible=1;marginBottom=0;whiteSpace=wrap;html=1;" parent="1" vertex="1">
          <mxGeometry x="610" y="-650" width="181" height="154" as="geometry" />
        </mxCell>
        <mxCell id="c0SSLgtnGO3cboPd4Nja-7" value="&lt;div&gt;+ mutationMod: mutationModel&lt;br&gt;&lt;/div&gt;&lt;div&gt;+simulatedData:genetData&lt;/div&gt;&lt;div&gt;+coalescentProbs&lt;br&gt;+likelihood&lt;/div&gt;&lt;div&gt;+likelihoodParamInf&lt;br&gt;&lt;/div&gt;&lt;div&gt;&lt;br&gt;&lt;/div&gt;" style="text;strokeColor=none;fillColor=none;align=left;verticalAlign=top;spacingLeft=4;spacingRight=4;overflow=hidden;rotatable=0;points=[[0,0.5],[1,0.5]];portConstraint=eastwest;whiteSpace=wrap;html=1;" parent="c0SSLgtnGO3cboPd4Nja-6" vertex="1">
          <mxGeometry y="26" width="181" height="94" as="geometry" />
        </mxCell>
        <mxCell id="c0SSLgtnGO3cboPd4Nja-8" value="" style="line;strokeWidth=1;fillColor=none;align=left;verticalAlign=middle;spacingTop=-1;spacingLeft=3;spacingRight=3;rotatable=0;labelPosition=right;points=[];portConstraint=eastwest;strokeColor=inherit;" parent="c0SSLgtnGO3cboPd4Nja-6" vertex="1">
          <mxGeometry y="120" width="181" height="8" as="geometry" />
        </mxCell>
        <mxCell id="c0SSLgtnGO3cboPd4Nja-9" value="+ inferModel(): type" style="text;strokeColor=none;fillColor=none;align=left;verticalAlign=top;spacingLeft=4;spacingRight=4;overflow=hidden;rotatable=0;points=[[0,0.5],[1,0.5]];portConstraint=eastwest;whiteSpace=wrap;html=1;" parent="c0SSLgtnGO3cboPd4Nja-6" vertex="1">
          <mxGeometry y="128" width="181" height="26" as="geometry" />
        </mxCell>
        <mxCell id="c0SSLgtnGO3cboPd4Nja-11" value="genetData" style="swimlane;fontStyle=1;align=center;verticalAlign=top;childLayout=stackLayout;horizontal=1;startSize=26;horizontalStack=0;resizeParent=1;resizeParentMax=0;resizeLast=0;collapsible=1;marginBottom=0;whiteSpace=wrap;html=1;" parent="1" vertex="1">
          <mxGeometry x="370" y="-825" width="160" height="78" as="geometry" />
        </mxCell>
        <mxCell id="c0SSLgtnGO3cboPd4Nja-12" value="&lt;div&gt;+ type: markerType&lt;/div&gt;&lt;div&gt;+ genetData: ç...&lt;br&gt;&lt;/div&gt;" style="text;strokeColor=none;fillColor=none;align=left;verticalAlign=top;spacingLeft=4;spacingRight=4;overflow=hidden;rotatable=0;points=[[0,0.5],[1,0.5]];portConstraint=eastwest;whiteSpace=wrap;html=1;" parent="c0SSLgtnGO3cboPd4Nja-11" vertex="1">
          <mxGeometry y="26" width="160" height="44" as="geometry" />
        </mxCell>
        <mxCell id="c0SSLgtnGO3cboPd4Nja-13" value="" style="line;strokeWidth=1;fillColor=none;align=left;verticalAlign=middle;spacingTop=-1;spacingLeft=3;spacingRight=3;rotatable=0;labelPosition=right;points=[];portConstraint=eastwest;strokeColor=inherit;" parent="c0SSLgtnGO3cboPd4Nja-11" vertex="1">
          <mxGeometry y="70" width="160" height="8" as="geometry" />
        </mxCell>
        <mxCell id="c0SSLgtnGO3cboPd4Nja-15" value="" style="endArrow=diamondThin;endFill=0;endSize=24;html=1;rounded=0;" parent="1" source="_K4OWj6VhO3JEERv6Nd--1" target="c0SSLgtnGO3cboPd4Nja-11" edge="1">
          <mxGeometry width="160" relative="1" as="geometry">
            <mxPoint x="489" y="510" as="sourcePoint" />
            <mxPoint x="439" y="600" as="targetPoint" />
          </mxGeometry>
        </mxCell>
        <mxCell id="c0SSLgtnGO3cboPd4Nja-16" value="Extends" style="endArrow=block;endSize=16;endFill=0;html=1;rounded=0;" parent="1" source="c0SSLgtnGO3cboPd4Nja-9" target="mUlPBs0OehojVBWcTJut-1" edge="1">
          <mxGeometry width="160" relative="1" as="geometry">
            <mxPoint x="459" y="-313" as="sourcePoint" />
            <mxPoint x="449" y="-480" as="targetPoint" />
          </mxGeometry>
        </mxCell>
        <mxCell id="c0SSLgtnGO3cboPd4Nja-17" value="" style="endArrow=diamondThin;endFill=0;endSize=24;html=1;rounded=0;" parent="1" source="c0SSLgtnGO3cboPd4Nja-6" target="_K4OWj6VhO3JEERv6Nd--10" edge="1">
          <mxGeometry width="160" relative="1" as="geometry">
            <mxPoint x="478" y="-688.5" as="sourcePoint" />
            <mxPoint x="528" y="-461.5" as="targetPoint" />
          </mxGeometry>
        </mxCell>
        <mxCell id="c0SSLgtnGO3cboPd4Nja-18" value="mutationModel" style="swimlane;fontStyle=1;align=center;verticalAlign=top;childLayout=stackLayout;horizontal=1;startSize=26;horizontalStack=0;resizeParent=1;resizeParentMax=0;resizeLast=0;collapsible=1;marginBottom=0;whiteSpace=wrap;html=1;" parent="1" vertex="1">
          <mxGeometry x="349" y="-470" width="160" height="86" as="geometry" />
        </mxCell>
        <mxCell id="c0SSLgtnGO3cboPd4Nja-19" value="+ field: type" style="text;strokeColor=none;fillColor=none;align=left;verticalAlign=top;spacingLeft=4;spacingRight=4;overflow=hidden;rotatable=0;points=[[0,0.5],[1,0.5]];portConstraint=eastwest;whiteSpace=wrap;html=1;" parent="c0SSLgtnGO3cboPd4Nja-18" vertex="1">
          <mxGeometry y="26" width="160" height="26" as="geometry" />
        </mxCell>
        <mxCell id="c0SSLgtnGO3cboPd4Nja-20" value="" style="line;strokeWidth=1;fillColor=none;align=left;verticalAlign=middle;spacingTop=-1;spacingLeft=3;spacingRight=3;rotatable=0;labelPosition=right;points=[];portConstraint=eastwest;strokeColor=inherit;" parent="c0SSLgtnGO3cboPd4Nja-18" vertex="1">
          <mxGeometry y="52" width="160" height="8" as="geometry" />
        </mxCell>
        <mxCell id="c0SSLgtnGO3cboPd4Nja-21" value="+ method(type): type" style="text;strokeColor=none;fillColor=none;align=left;verticalAlign=top;spacingLeft=4;spacingRight=4;overflow=hidden;rotatable=0;points=[[0,0.5],[1,0.5]];portConstraint=eastwest;whiteSpace=wrap;html=1;" parent="c0SSLgtnGO3cboPd4Nja-18" vertex="1">
          <mxGeometry y="60" width="160" height="26" as="geometry" />
        </mxCell>
        <mxCell id="c0SSLgtnGO3cboPd4Nja-22" value="" style="endArrow=diamondThin;endFill=0;endSize=24;html=1;rounded=0;" parent="1" source="c0SSLgtnGO3cboPd4Nja-6" target="c0SSLgtnGO3cboPd4Nja-18" edge="1">
          <mxGeometry width="160" relative="1" as="geometry">
            <mxPoint x="584" y="-654" as="sourcePoint" />
            <mxPoint x="528" y="-686" as="targetPoint" />
          </mxGeometry>
        </mxCell>
        <mxCell id="c0SSLgtnGO3cboPd4Nja-23" value="ecoCoaGraphInf" style="swimlane;fontStyle=1;align=center;verticalAlign=top;childLayout=stackLayout;horizontal=1;startSize=26;horizontalStack=0;resizeParent=1;resizeParentMax=0;resizeLast=0;collapsible=1;marginBottom=0;whiteSpace=wrap;html=1;" parent="1" vertex="1">
          <mxGeometry x="109" y="-1040" width="160" height="134" as="geometry" />
        </mxCell>
        <mxCell id="c0SSLgtnGO3cboPd4Nja-24" value="&lt;div&gt;+ mutationMod: mutationModel&lt;br&gt;&lt;/div&gt;&lt;div&gt;+simulatedData:genetData&lt;/div&gt;&lt;div&gt;+coalescentProbs&lt;/div&gt;&lt;div&gt;&lt;br&gt;&lt;/div&gt;" style="text;strokeColor=none;fillColor=none;align=left;verticalAlign=top;spacingLeft=4;spacingRight=4;overflow=hidden;rotatable=0;points=[[0,0.5],[1,0.5]];portConstraint=eastwest;whiteSpace=wrap;html=1;" parent="c0SSLgtnGO3cboPd4Nja-23" vertex="1">
          <mxGeometry y="26" width="160" height="74" as="geometry" />
        </mxCell>
        <mxCell id="c0SSLgtnGO3cboPd4Nja-25" value="" style="line;strokeWidth=1;fillColor=none;align=left;verticalAlign=middle;spacingTop=-1;spacingLeft=3;spacingRight=3;rotatable=0;labelPosition=right;points=[];portConstraint=eastwest;strokeColor=inherit;" parent="c0SSLgtnGO3cboPd4Nja-23" vertex="1">
          <mxGeometry y="100" width="160" height="8" as="geometry" />
        </mxCell>
        <mxCell id="c0SSLgtnGO3cboPd4Nja-26" value="+ inferModel(): type" style="text;strokeColor=none;fillColor=none;align=left;verticalAlign=top;spacingLeft=4;spacingRight=4;overflow=hidden;rotatable=0;points=[[0,0.5],[1,0.5]];portConstraint=eastwest;whiteSpace=wrap;html=1;" parent="c0SSLgtnGO3cboPd4Nja-23" vertex="1">
          <mxGeometry y="108" width="160" height="26" as="geometry" />
        </mxCell>
        <mxCell id="NMEEuWL-GFLA4NUDNVhm-1" value="&lt;div&gt;RasterStack&lt;/div&gt;" style="swimlane;fontStyle=1;align=center;verticalAlign=top;childLayout=stackLayout;horizontal=1;startSize=26;horizontalStack=0;resizeParent=1;resizeParentMax=0;resizeLast=0;collapsible=1;marginBottom=0;whiteSpace=wrap;html=1;" parent="1" vertex="1">
          <mxGeometry x="1176" y="-170" width="160" height="140" as="geometry" />
        </mxCell>
        <mxCell id="NMEEuWL-GFLA4NUDNVhm-2" value="" style="line;strokeWidth=1;fillColor=none;align=left;verticalAlign=middle;spacingTop=-1;spacingLeft=3;spacingRight=3;rotatable=0;labelPosition=right;points=[];portConstraint=eastwest;strokeColor=inherit;" parent="NMEEuWL-GFLA4NUDNVhm-1" vertex="1">
          <mxGeometry y="26" width="160" height="8" as="geometry" />
        </mxCell>
        <mxCell id="NMEEuWL-GFLA4NUDNVhm-3" value="&lt;div&gt;+ nCell: int[]&lt;br&gt;&lt;/div&gt;&lt;div&gt;+ xy: data.frame&lt;/div&gt;&lt;div&gt;+ values: data.frame&lt;/div&gt;&lt;div&gt;+ variable.names: char[]&lt;/div&gt;&lt;div&gt;+ extent&lt;br&gt;&lt;/div&gt;" style="text;strokeColor=none;fillColor=none;align=left;verticalAlign=top;spacingLeft=4;spacingRight=4;overflow=hidden;rotatable=0;points=[[0,0.5],[1,0.5]];portConstraint=eastwest;whiteSpace=wrap;html=1;" parent="NMEEuWL-GFLA4NUDNVhm-1" vertex="1">
          <mxGeometry y="34" width="160" height="106" as="geometry" />
        </mxCell>
        <mxCell id="NMEEuWL-GFLA4NUDNVhm-4" value="geoEnvData" style="swimlane;fontStyle=1;align=center;verticalAlign=top;childLayout=stackLayout;horizontal=1;startSize=26;horizontalStack=0;resizeParent=1;resizeParentMax=0;resizeLast=0;collapsible=1;marginBottom=0;whiteSpace=wrap;html=1;" parent="1" vertex="1">
          <mxGeometry x="904" y="-404" width="190" height="140" as="geometry" />
        </mxCell>
        <mxCell id="NMEEuWL-GFLA4NUDNVhm-6" value="" style="line;strokeWidth=1;fillColor=none;align=left;verticalAlign=middle;spacingTop=-1;spacingLeft=3;spacingRight=3;rotatable=0;labelPosition=right;points=[];portConstraint=eastwest;strokeColor=inherit;" parent="NMEEuWL-GFLA4NUDNVhm-4" vertex="1">
          <mxGeometry y="26" width="190" height="8" as="geometry" />
        </mxCell>
        <mxCell id="NMEEuWL-GFLA4NUDNVhm-7" value="&lt;div&gt;+ NAcells: int[]&lt;br&gt;&lt;/div&gt;&lt;div&gt;+ Acells: int[]&lt;/div&gt;&lt;div&gt;+ xyA: data.frame&lt;/div&gt;&lt;div&gt;+ nCellA:int&lt;/div&gt;&lt;div&gt;+ valuesA: data.frame&lt;/div&gt;&lt;div&gt;+ variable.names: char[]&lt;/div&gt;&lt;div&gt;+ show&lt;br&gt;&lt;/div&gt;" style="text;strokeColor=none;fillColor=none;align=left;verticalAlign=top;spacingLeft=4;spacingRight=4;overflow=hidden;rotatable=0;points=[[0,0.5],[1,0.5]];portConstraint=eastwest;whiteSpace=wrap;html=1;" parent="NMEEuWL-GFLA4NUDNVhm-4" vertex="1">
          <mxGeometry y="34" width="190" height="106" as="geometry" />
        </mxCell>
        <mxCell id="NMEEuWL-GFLA4NUDNVhm-8" value="Extends" style="endArrow=block;endSize=16;endFill=0;html=1;rounded=0;exitX=0.508;exitY=1.021;exitDx=0;exitDy=0;exitPerimeter=0;" parent="1" source="NMEEuWL-GFLA4NUDNVhm-7" target="NMEEuWL-GFLA4NUDNVhm-1" edge="1">
          <mxGeometry width="160" relative="1" as="geometry">
            <mxPoint x="909" y="510" as="sourcePoint" />
            <mxPoint x="1069" y="510" as="targetPoint" />
          </mxGeometry>
        </mxCell>
        <mxCell id="NMEEuWL-GFLA4NUDNVhm-9" value="socioecoGroupsData" style="swimlane;fontStyle=1;align=center;verticalAlign=top;childLayout=stackLayout;horizontal=1;startSize=26;horizontalStack=0;resizeParent=1;resizeParentMax=0;resizeLast=0;collapsible=1;marginBottom=0;whiteSpace=wrap;html=1;" parent="1" vertex="1">
          <mxGeometry x="1171" y="-404" width="170" height="124" as="geometry" />
        </mxCell>
        <mxCell id="NMEEuWL-GFLA4NUDNVhm-11" value="" style="line;strokeWidth=1;fillColor=none;align=left;verticalAlign=middle;spacingTop=-1;spacingLeft=3;spacingRight=3;rotatable=0;labelPosition=right;points=[];portConstraint=eastwest;strokeColor=inherit;" parent="NMEEuWL-GFLA4NUDNVhm-9" vertex="1">
          <mxGeometry y="26" width="170" height="8" as="geometry" />
        </mxCell>
        <mxCell id="NMEEuWL-GFLA4NUDNVhm-12" value="&lt;div&gt;+ show&lt;/div&gt;&lt;div&gt;+ categories&lt;/div&gt;&lt;div&gt;+ variable.names&lt;br&gt;&lt;/div&gt;&lt;div&gt;&lt;div&gt;+ Acells: list[[int[]]]&lt;/div&gt;&lt;/div&gt;&lt;div&gt;+ nCellA:int&lt;/div&gt;" style="text;strokeColor=none;fillColor=none;align=left;verticalAlign=top;spacingLeft=4;spacingRight=4;overflow=hidden;rotatable=0;points=[[0,0.5],[1,0.5]];portConstraint=eastwest;whiteSpace=wrap;html=1;" parent="NMEEuWL-GFLA4NUDNVhm-9" vertex="1">
          <mxGeometry y="34" width="170" height="90" as="geometry" />
        </mxCell>
        <mxCell id="NMEEuWL-GFLA4NUDNVhm-13" value="list" style="swimlane;fontStyle=1;align=center;verticalAlign=top;childLayout=stackLayout;horizontal=1;startSize=26;horizontalStack=0;resizeParent=1;resizeParentMax=0;resizeLast=0;collapsible=1;marginBottom=0;whiteSpace=wrap;html=1;" parent="1" vertex="1">
          <mxGeometry x="1176" y="-230" width="160" height="34" as="geometry" />
        </mxCell>
        <mxCell id="NMEEuWL-GFLA4NUDNVhm-14" value="" style="line;strokeWidth=1;fillColor=none;align=left;verticalAlign=middle;spacingTop=-1;spacingLeft=3;spacingRight=3;rotatable=0;labelPosition=right;points=[];portConstraint=eastwest;strokeColor=inherit;" parent="NMEEuWL-GFLA4NUDNVhm-13" vertex="1">
          <mxGeometry y="26" width="160" height="8" as="geometry" />
        </mxCell>
        <mxCell id="NMEEuWL-GFLA4NUDNVhm-15" value="Extends" style="endArrow=block;endSize=16;endFill=0;html=1;rounded=0;" parent="1" source="NMEEuWL-GFLA4NUDNVhm-9" target="NMEEuWL-GFLA4NUDNVhm-13" edge="1">
          <mxGeometry width="160" relative="1" as="geometry">
            <mxPoint x="1339" y="440" as="sourcePoint" />
            <mxPoint x="1219" y="490" as="targetPoint" />
          </mxGeometry>
        </mxCell>
        <mxCell id="NMEEuWL-GFLA4NUDNVhm-16" value="" style="endArrow=diamondThin;endFill=0;endSize=24;html=1;rounded=0;" parent="1" source="NMEEuWL-GFLA4NUDNVhm-9" target="NMEEuWL-GFLA4NUDNVhm-21" edge="1">
          <mxGeometry width="160" relative="1" as="geometry">
            <mxPoint x="1339" y="500" as="sourcePoint" />
            <mxPoint x="1219" y="470" as="targetPoint" />
          </mxGeometry>
        </mxCell>
        <mxCell id="NMEEuWL-GFLA4NUDNVhm-17" value="socioecoGeoData" style="swimlane;fontStyle=1;align=center;verticalAlign=top;childLayout=stackLayout;horizontal=1;startSize=26;horizontalStack=0;resizeParent=1;resizeParentMax=0;resizeLast=0;collapsible=1;marginBottom=0;whiteSpace=wrap;html=1;" parent="1" vertex="1">
          <mxGeometry x="1039.5" y="-517" width="160" height="76" as="geometry" />
        </mxCell>
        <mxCell id="NMEEuWL-GFLA4NUDNVhm-19" value="" style="line;strokeWidth=1;fillColor=none;align=left;verticalAlign=middle;spacingTop=-1;spacingLeft=3;spacingRight=3;rotatable=0;labelPosition=right;points=[];portConstraint=eastwest;strokeColor=inherit;" parent="NMEEuWL-GFLA4NUDNVhm-17" vertex="1">
          <mxGeometry y="26" width="160" height="8" as="geometry" />
        </mxCell>
        <mxCell id="NMEEuWL-GFLA4NUDNVhm-20" value="&lt;div&gt;+ extent(): int&lt;/div&gt;&lt;div&gt;+ dim&lt;br&gt;&lt;/div&gt;" style="text;strokeColor=none;fillColor=none;align=left;verticalAlign=top;spacingLeft=4;spacingRight=4;overflow=hidden;rotatable=0;points=[[0,0.5],[1,0.5]];portConstraint=eastwest;whiteSpace=wrap;html=1;" parent="NMEEuWL-GFLA4NUDNVhm-17" vertex="1">
          <mxGeometry y="34" width="160" height="42" as="geometry" />
        </mxCell>
        <mxCell id="NMEEuWL-GFLA4NUDNVhm-21" value="socioecoGroupData" style="swimlane;fontStyle=1;align=center;verticalAlign=top;childLayout=stackLayout;horizontal=1;startSize=26;horizontalStack=0;resizeParent=1;resizeParentMax=0;resizeLast=0;collapsible=1;marginBottom=0;whiteSpace=wrap;html=1;" parent="1" vertex="1">
          <mxGeometry x="1404.5" y="-404" width="180" height="94" as="geometry" />
        </mxCell>
        <mxCell id="NMEEuWL-GFLA4NUDNVhm-23" value="" style="line;strokeWidth=1;fillColor=none;align=left;verticalAlign=middle;spacingTop=-1;spacingLeft=3;spacingRight=3;rotatable=0;labelPosition=right;points=[];portConstraint=eastwest;strokeColor=inherit;" parent="NMEEuWL-GFLA4NUDNVhm-21" vertex="1">
          <mxGeometry y="26" width="180" height="8" as="geometry" />
        </mxCell>
        <mxCell id="NMEEuWL-GFLA4NUDNVhm-24" value="&lt;div&gt;+ Acells: int[]&lt;/div&gt;&lt;div&gt;+ valuesA: data.frame&lt;/div&gt;&lt;div&gt;+ variable.names: char[]&lt;br&gt;&lt;/div&gt;" style="text;strokeColor=none;fillColor=none;align=left;verticalAlign=top;spacingLeft=4;spacingRight=4;overflow=hidden;rotatable=0;points=[[0,0.5],[1,0.5]];portConstraint=eastwest;whiteSpace=wrap;html=1;" parent="NMEEuWL-GFLA4NUDNVhm-21" vertex="1">
          <mxGeometry y="34" width="180" height="60" as="geometry" />
        </mxCell>
        <mxCell id="NMEEuWL-GFLA4NUDNVhm-25" value="nicheModel" style="swimlane;fontStyle=1;align=center;verticalAlign=top;childLayout=stackLayout;horizontal=1;startSize=26;horizontalStack=0;resizeParent=1;resizeParentMax=0;resizeLast=0;collapsible=1;marginBottom=0;whiteSpace=wrap;html=1;" parent="1" vertex="1">
          <mxGeometry x="1404.5" y="-570" width="170" height="66" as="geometry" />
        </mxCell>
        <mxCell id="NMEEuWL-GFLA4NUDNVhm-27" value="" style="line;strokeWidth=1;fillColor=none;align=left;verticalAlign=middle;spacingTop=-1;spacingLeft=3;spacingRight=3;rotatable=0;labelPosition=right;points=[];portConstraint=eastwest;strokeColor=inherit;" parent="NMEEuWL-GFLA4NUDNVhm-25" vertex="1">
          <mxGeometry y="26" width="170" height="8" as="geometry" />
        </mxCell>
        <mxCell id="NMEEuWL-GFLA4NUDNVhm-28" value="+ method(type): type" style="text;strokeColor=none;fillColor=none;align=left;verticalAlign=top;spacingLeft=4;spacingRight=4;overflow=hidden;rotatable=0;points=[[0,0.5],[1,0.5]];portConstraint=eastwest;whiteSpace=wrap;html=1;" parent="NMEEuWL-GFLA4NUDNVhm-25" vertex="1">
          <mxGeometry y="34" width="170" height="32" as="geometry" />
        </mxCell>
        <mxCell id="NMEEuWL-GFLA4NUDNVhm-29" value="npNiche: int[]" style="html=1;whiteSpace=wrap;" parent="1" vertex="1">
          <mxGeometry x="1450" y="370" width="110" height="50" as="geometry" />
        </mxCell>
        <mxCell id="NMEEuWL-GFLA4NUDNVhm-30" value="reactNorms: char[]" style="html=1;whiteSpace=wrap;" parent="1" vertex="1">
          <mxGeometry x="1450" y="430" width="110" height="50" as="geometry" />
        </mxCell>
        <mxCell id="NMEEuWL-GFLA4NUDNVhm-31" value="migrationShapes: char[]" style="html=1;whiteSpace=wrap;" parent="1" vertex="1">
          <mxGeometry x="1450" y="490" width="110" height="50" as="geometry" />
        </mxCell>
        <mxCell id="NMEEuWL-GFLA4NUDNVhm-32" value="npMig: int[]" style="html=1;whiteSpace=wrap;" parent="1" vertex="1">
          <mxGeometry x="1450" y="550" width="110" height="50" as="geometry" />
        </mxCell>
        <mxCell id="NMEEuWL-GFLA4NUDNVhm-33" value="geoMigrationModel" style="swimlane;fontStyle=1;align=center;verticalAlign=top;childLayout=stackLayout;horizontal=1;startSize=26;horizontalStack=0;resizeParent=1;resizeParentMax=0;resizeLast=0;collapsible=1;marginBottom=0;whiteSpace=wrap;html=1;" parent="1" vertex="1">
          <mxGeometry x="1209.5" y="-517" width="170" height="66" as="geometry" />
        </mxCell>
        <mxCell id="NMEEuWL-GFLA4NUDNVhm-35" value="" style="line;strokeWidth=1;fillColor=none;align=left;verticalAlign=middle;spacingTop=-1;spacingLeft=3;spacingRight=3;rotatable=0;labelPosition=right;points=[];portConstraint=eastwest;strokeColor=inherit;" parent="NMEEuWL-GFLA4NUDNVhm-33" vertex="1">
          <mxGeometry y="26" width="170" height="8" as="geometry" />
        </mxCell>
        <mxCell id="NMEEuWL-GFLA4NUDNVhm-36" value="+ method(type): type" style="text;strokeColor=none;fillColor=none;align=left;verticalAlign=top;spacingLeft=4;spacingRight=4;overflow=hidden;rotatable=0;points=[[0,0.5],[1,0.5]];portConstraint=eastwest;whiteSpace=wrap;html=1;" parent="NMEEuWL-GFLA4NUDNVhm-33" vertex="1">
          <mxGeometry y="34" width="170" height="32" as="geometry" />
        </mxCell>
        <mxCell id="NMEEuWL-GFLA4NUDNVhm-37" value="socioecoGeoDataHistoryAndSample" style="swimlane;fontStyle=1;align=center;verticalAlign=top;childLayout=stackLayout;horizontal=1;startSize=26;horizontalStack=0;resizeParent=1;resizeParentMax=0;resizeLast=0;collapsible=1;marginBottom=0;whiteSpace=wrap;html=1;" parent="1" vertex="1">
          <mxGeometry x="904" y="-640" width="220" height="60" as="geometry" />
        </mxCell>
        <mxCell id="NMEEuWL-GFLA4NUDNVhm-39" value="" style="line;strokeWidth=1;fillColor=none;align=left;verticalAlign=middle;spacingTop=-1;spacingLeft=3;spacingRight=3;rotatable=0;labelPosition=right;points=[];portConstraint=eastwest;strokeColor=inherit;" parent="NMEEuWL-GFLA4NUDNVhm-37" vertex="1">
          <mxGeometry y="26" width="220" height="8" as="geometry" />
        </mxCell>
        <mxCell id="NMEEuWL-GFLA4NUDNVhm-40" value="+ sample(): sampledCells" style="text;strokeColor=none;fillColor=none;align=left;verticalAlign=top;spacingLeft=4;spacingRight=4;overflow=hidden;rotatable=0;points=[[0,0.5],[1,0.5]];portConstraint=eastwest;whiteSpace=wrap;html=1;" parent="NMEEuWL-GFLA4NUDNVhm-37" vertex="1">
          <mxGeometry y="34" width="220" height="26" as="geometry" />
        </mxCell>
        <mxCell id="NMEEuWL-GFLA4NUDNVhm-41" value="" style="endArrow=diamondThin;endFill=0;endSize=24;html=1;rounded=0;entryX=0.153;entryY=0;entryDx=0;entryDy=0;entryPerimeter=0;" parent="1" source="NMEEuWL-GFLA4NUDNVhm-17" target="NMEEuWL-GFLA4NUDNVhm-9" edge="1">
          <mxGeometry width="160" relative="1" as="geometry">
            <mxPoint x="1139" y="200" as="sourcePoint" />
            <mxPoint x="1009" y="300" as="targetPoint" />
          </mxGeometry>
        </mxCell>
        <mxCell id="NMEEuWL-GFLA4NUDNVhm-43" value="socioecoGeoDataModel" style="swimlane;fontStyle=1;align=center;verticalAlign=top;childLayout=stackLayout;horizontal=1;startSize=26;horizontalStack=0;resizeParent=1;resizeParentMax=0;resizeLast=0;collapsible=1;marginBottom=0;whiteSpace=wrap;html=1;" parent="1" vertex="1">
          <mxGeometry x="1149" y="-660" width="210" height="106" as="geometry" />
        </mxCell>
        <mxCell id="NMEEuWL-GFLA4NUDNVhm-45" value="" style="line;strokeWidth=1;fillColor=none;align=left;verticalAlign=middle;spacingTop=-1;spacingLeft=3;spacingRight=3;rotatable=0;labelPosition=right;points=[];portConstraint=eastwest;strokeColor=inherit;" parent="NMEEuWL-GFLA4NUDNVhm-43" vertex="1">
          <mxGeometry y="26" width="210" height="8" as="geometry" />
        </mxCell>
        <mxCell id="NMEEuWL-GFLA4NUDNVhm-46" value="&lt;div&gt;&lt;div&gt;+ buildRKlandscape(): ..&lt;/div&gt;&lt;div&gt;+ buildGeodist(): float[,]&lt;br&gt;&lt;/div&gt;&lt;div&gt;+ buildMigrationMatrix(): float[,]&lt;/div&gt;+ buildRKlandscape(): RasterStack&lt;/div&gt;" style="text;strokeColor=none;fillColor=none;align=left;verticalAlign=top;spacingLeft=4;spacingRight=4;overflow=hidden;rotatable=0;points=[[0,0.5],[1,0.5]];portConstraint=eastwest;whiteSpace=wrap;html=1;" parent="NMEEuWL-GFLA4NUDNVhm-43" vertex="1">
          <mxGeometry y="34" width="210" height="72" as="geometry" />
        </mxCell>
        <mxCell id="NMEEuWL-GFLA4NUDNVhm-47" value="Extends" style="endArrow=block;endSize=16;endFill=0;html=1;rounded=0;" parent="1" source="NMEEuWL-GFLA4NUDNVhm-46" target="NMEEuWL-GFLA4NUDNVhm-37" edge="1">
          <mxGeometry width="160" relative="1" as="geometry">
            <mxPoint x="1219" y="-60" as="sourcePoint" />
            <mxPoint x="1379" y="-60" as="targetPoint" />
          </mxGeometry>
        </mxCell>
        <mxCell id="NMEEuWL-GFLA4NUDNVhm-48" value="" style="endArrow=diamondThin;endFill=0;endSize=24;html=1;rounded=0;" parent="1" source="NMEEuWL-GFLA4NUDNVhm-43" target="NMEEuWL-GFLA4NUDNVhm-33" edge="1">
          <mxGeometry width="160" relative="1" as="geometry">
            <mxPoint x="1310" y="-116" as="sourcePoint" />
            <mxPoint x="1330" y="70" as="targetPoint" />
          </mxGeometry>
        </mxCell>
        <mxCell id="NMEEuWL-GFLA4NUDNVhm-49" value="" style="endArrow=diamondThin;endFill=1;endSize=24;html=1;rounded=0;" parent="1" source="NMEEuWL-GFLA4NUDNVhm-43" target="NMEEuWL-GFLA4NUDNVhm-25" edge="1">
          <mxGeometry width="160" relative="1" as="geometry">
            <mxPoint x="1219" as="sourcePoint" />
            <mxPoint x="1319" y="60" as="targetPoint" />
          </mxGeometry>
        </mxCell>
        <mxCell id="NMEEuWL-GFLA4NUDNVhm-50" value="" style="endArrow=diamondThin;endFill=0;endSize=24;html=1;rounded=0;" parent="1" source="NMEEuWL-GFLA4NUDNVhm-21" target="NMEEuWL-GFLA4NUDNVhm-1" edge="1">
          <mxGeometry width="160" relative="1" as="geometry">
            <mxPoint x="1049" y="490" as="sourcePoint" />
            <mxPoint x="1257" y="490" as="targetPoint" />
          </mxGeometry>
        </mxCell>
        <mxCell id="NMEEuWL-GFLA4NUDNVhm-51" value="Extends" style="endArrow=block;endSize=16;endFill=0;html=1;rounded=0;entryX=0.25;entryY=0;entryDx=0;entryDy=0;" parent="1" source="NMEEuWL-GFLA4NUDNVhm-40" target="NMEEuWL-GFLA4NUDNVhm-17" edge="1">
          <mxGeometry width="160" relative="1" as="geometry">
            <mxPoint x="1120.077922077922" y="19" as="sourcePoint" />
            <mxPoint x="1108" y="81" as="targetPoint" />
          </mxGeometry>
        </mxCell>
        <mxCell id="NMEEuWL-GFLA4NUDNVhm-52" value="Extends" style="endArrow=block;endSize=16;endFill=0;html=1;rounded=0;" parent="1" source="NMEEuWL-GFLA4NUDNVhm-17" target="NMEEuWL-GFLA4NUDNVhm-4" edge="1">
          <mxGeometry width="160" relative="1" as="geometry">
            <mxPoint x="1138" y="24" as="sourcePoint" />
            <mxPoint x="979" y="130" as="targetPoint" />
          </mxGeometry>
        </mxCell>
        <mxCell id="NMEEuWL-GFLA4NUDNVhm-53" value="envelope&#xa;enveLinear&#xa;scaling&#xa;conQuadratic&#xa;conQuadraticSkewed&#xa;&#xa;" style="text;whiteSpace=wrap;" parent="1" vertex="1">
          <mxGeometry x="1490" y="720" width="140" height="40" as="geometry" />
        </mxCell>
        <mxCell id="NMEEuWL-GFLA4NUDNVhm-54" value="" style="edgeStyle=orthogonalEdgeStyle;rounded=0;orthogonalLoop=1;jettySize=auto;html=1;" parent="1" source="NMEEuWL-GFLA4NUDNVhm-56" target="NMEEuWL-GFLA4NUDNVhm-62" edge="1">
          <mxGeometry relative="1" as="geometry" />
        </mxCell>
        <mxCell id="NMEEuWL-GFLA4NUDNVhm-55" value="" style="edgeStyle=orthogonalEdgeStyle;rounded=0;orthogonalLoop=1;jettySize=auto;html=1;" parent="1" source="NMEEuWL-GFLA4NUDNVhm-62" target="NMEEuWL-GFLA4NUDNVhm-66" edge="1">
          <mxGeometry relative="1" as="geometry" />
        </mxCell>
        <mxCell id="NMEEuWL-GFLA4NUDNVhm-94" value="" style="edgeStyle=orthogonalEdgeStyle;rounded=0;orthogonalLoop=1;jettySize=auto;html=1;" parent="1" source="NMEEuWL-GFLA4NUDNVhm-56" target="NMEEuWL-GFLA4NUDNVhm-73" edge="1">
          <mxGeometry relative="1" as="geometry">
            <Array as="points">
              <mxPoint x="1346" y="-700" />
              <mxPoint x="1346" y="-700" />
            </Array>
          </mxGeometry>
        </mxCell>
        <mxCell id="NMEEuWL-GFLA4NUDNVhm-56" value="envDynSet" style="swimlane;fontStyle=1;align=center;verticalAlign=top;childLayout=stackLayout;horizontal=1;startSize=26;horizontalStack=0;resizeParent=1;resizeParentMax=0;resizeLast=0;collapsible=1;marginBottom=0;whiteSpace=wrap;html=1;" parent="1" vertex="1">
          <mxGeometry x="1166" y="-747" width="180" height="60" as="geometry" />
        </mxCell>
        <mxCell id="NMEEuWL-GFLA4NUDNVhm-58" value="" style="line;strokeWidth=1;fillColor=none;align=left;verticalAlign=middle;spacingTop=-1;spacingLeft=3;spacingRight=3;rotatable=0;labelPosition=right;points=[];portConstraint=eastwest;strokeColor=inherit;" parent="NMEEuWL-GFLA4NUDNVhm-56" vertex="1">
          <mxGeometry y="26" width="180" height="8" as="geometry" />
        </mxCell>
        <mxCell id="NMEEuWL-GFLA4NUDNVhm-59" value="+ method(type): type" style="text;strokeColor=none;fillColor=none;align=left;verticalAlign=top;spacingLeft=4;spacingRight=4;overflow=hidden;rotatable=0;points=[[0,0.5],[1,0.5]];portConstraint=eastwest;whiteSpace=wrap;html=1;" parent="NMEEuWL-GFLA4NUDNVhm-56" vertex="1">
          <mxGeometry y="34" width="180" height="26" as="geometry" />
        </mxCell>
        <mxCell id="NMEEuWL-GFLA4NUDNVhm-60" value="Extends" style="endArrow=block;endSize=16;endFill=0;html=1;rounded=0;" parent="1" source="NMEEuWL-GFLA4NUDNVhm-56" target="NMEEuWL-GFLA4NUDNVhm-43" edge="1">
          <mxGeometry width="160" relative="1" as="geometry">
            <mxPoint x="1279" y="-144" as="sourcePoint" />
            <mxPoint x="1159" y="-130" as="targetPoint" />
          </mxGeometry>
        </mxCell>
        <mxCell id="NMEEuWL-GFLA4NUDNVhm-61" value="" style="edgeStyle=orthogonalEdgeStyle;rounded=0;orthogonalLoop=1;jettySize=auto;html=1;" parent="1" source="NMEEuWL-GFLA4NUDNVhm-62" target="NMEEuWL-GFLA4NUDNVhm-70" edge="1">
          <mxGeometry relative="1" as="geometry">
            <mxPoint x="1114.0200000000002" y="-814.522" as="sourcePoint" />
            <mxPoint x="1379.72" y="-910.002962962963" as="targetPoint" />
            <Array as="points">
              <mxPoint x="896" y="-707" />
              <mxPoint x="896" y="-860" />
              <mxPoint x="1556" y="-860" />
            </Array>
          </mxGeometry>
        </mxCell>
        <mxCell id="NMEEuWL-GFLA4NUDNVhm-62" value="ecoCoalSim" style="swimlane;fontStyle=1;align=center;verticalAlign=top;childLayout=stackLayout;horizontal=1;startSize=26;horizontalStack=0;resizeParent=1;resizeParentMax=0;resizeLast=0;collapsible=1;marginBottom=0;whiteSpace=wrap;html=1;" parent="1" vertex="1">
          <mxGeometry x="914" y="-747" width="200" height="60" as="geometry" />
        </mxCell>
        <mxCell id="NMEEuWL-GFLA4NUDNVhm-64" value="" style="line;strokeWidth=1;fillColor=none;align=left;verticalAlign=middle;spacingTop=-1;spacingLeft=3;spacingRight=3;rotatable=0;labelPosition=right;points=[];portConstraint=eastwest;strokeColor=inherit;" parent="NMEEuWL-GFLA4NUDNVhm-62" vertex="1">
          <mxGeometry y="26" width="200" height="8" as="geometry" />
        </mxCell>
        <mxCell id="NMEEuWL-GFLA4NUDNVhm-65" value="+ simulCoal(): genealogy" style="text;strokeColor=none;fillColor=none;align=left;verticalAlign=top;spacingLeft=4;spacingRight=4;overflow=hidden;rotatable=0;points=[[0,0.5],[1,0.5]];portConstraint=eastwest;whiteSpace=wrap;html=1;" parent="NMEEuWL-GFLA4NUDNVhm-62" vertex="1">
          <mxGeometry y="34" width="200" height="26" as="geometry" />
        </mxCell>
        <mxCell id="NMEEuWL-GFLA4NUDNVhm-66" value="ecoCoalGraphs" style="swimlane;fontStyle=1;align=center;verticalAlign=top;childLayout=stackLayout;horizontal=1;startSize=26;horizontalStack=0;resizeParent=1;resizeParentMax=0;resizeLast=0;collapsible=1;marginBottom=0;whiteSpace=wrap;html=1;" parent="1" vertex="1">
          <mxGeometry x="914" y="-840" width="200" height="60" as="geometry" />
        </mxCell>
        <mxCell id="NMEEuWL-GFLA4NUDNVhm-68" value="" style="line;strokeWidth=1;fillColor=none;align=left;verticalAlign=middle;spacingTop=-1;spacingLeft=3;spacingRight=3;rotatable=0;labelPosition=right;points=[];portConstraint=eastwest;strokeColor=inherit;" parent="NMEEuWL-GFLA4NUDNVhm-66" vertex="1">
          <mxGeometry y="26" width="200" height="8" as="geometry" />
        </mxCell>
        <mxCell id="NMEEuWL-GFLA4NUDNVhm-69" value="+ method(type): type" style="text;strokeColor=none;fillColor=none;align=left;verticalAlign=top;spacingLeft=4;spacingRight=4;overflow=hidden;rotatable=0;points=[[0,0.5],[1,0.5]];portConstraint=eastwest;whiteSpace=wrap;html=1;" parent="NMEEuWL-GFLA4NUDNVhm-66" vertex="1">
          <mxGeometry y="34" width="200" height="26" as="geometry" />
        </mxCell>
        <mxCell id="NMEEuWL-GFLA4NUDNVhm-70" value="ecoCoalProb" style="swimlane;fontStyle=1;align=center;verticalAlign=top;childLayout=stackLayout;horizontal=1;startSize=26;horizontalStack=0;resizeParent=1;resizeParentMax=0;resizeLast=0;collapsible=1;marginBottom=0;whiteSpace=wrap;html=1;" parent="1" vertex="1">
          <mxGeometry x="1379.5" y="-747" width="200" height="60" as="geometry" />
        </mxCell>
        <mxCell id="NMEEuWL-GFLA4NUDNVhm-72" value="" style="line;strokeWidth=1;fillColor=none;align=left;verticalAlign=middle;spacingTop=-1;spacingLeft=3;spacingRight=3;rotatable=0;labelPosition=right;points=[];portConstraint=eastwest;strokeColor=inherit;" parent="NMEEuWL-GFLA4NUDNVhm-70" vertex="1">
          <mxGeometry y="26" width="200" height="8" as="geometry" />
        </mxCell>
        <mxCell id="NMEEuWL-GFLA4NUDNVhm-73" value="+ method(type): type" style="text;strokeColor=none;fillColor=none;align=left;verticalAlign=top;spacingLeft=4;spacingRight=4;overflow=hidden;rotatable=0;points=[[0,0.5],[1,0.5]];portConstraint=eastwest;whiteSpace=wrap;html=1;" parent="NMEEuWL-GFLA4NUDNVhm-70" vertex="1">
          <mxGeometry y="34" width="200" height="26" as="geometry" />
        </mxCell>
        <mxCell id="NMEEuWL-GFLA4NUDNVhm-74" value="socioEcoMigrationModel" style="swimlane;fontStyle=1;align=center;verticalAlign=top;childLayout=stackLayout;horizontal=1;startSize=26;horizontalStack=0;resizeParent=1;resizeParentMax=0;resizeLast=0;collapsible=1;marginBottom=0;whiteSpace=wrap;html=1;" parent="1" vertex="1">
          <mxGeometry x="1404.5" y="-650" width="170" height="66" as="geometry" />
        </mxCell>
        <mxCell id="NMEEuWL-GFLA4NUDNVhm-76" value="" style="line;strokeWidth=1;fillColor=none;align=left;verticalAlign=middle;spacingTop=-1;spacingLeft=3;spacingRight=3;rotatable=0;labelPosition=right;points=[];portConstraint=eastwest;strokeColor=inherit;" parent="NMEEuWL-GFLA4NUDNVhm-74" vertex="1">
          <mxGeometry y="26" width="170" height="8" as="geometry" />
        </mxCell>
        <mxCell id="NMEEuWL-GFLA4NUDNVhm-77" value="+ method(type): type" style="text;strokeColor=none;fillColor=none;align=left;verticalAlign=top;spacingLeft=4;spacingRight=4;overflow=hidden;rotatable=0;points=[[0,0.5],[1,0.5]];portConstraint=eastwest;whiteSpace=wrap;html=1;" parent="NMEEuWL-GFLA4NUDNVhm-74" vertex="1">
          <mxGeometry y="34" width="170" height="32" as="geometry" />
        </mxCell>
        <mxCell id="NMEEuWL-GFLA4NUDNVhm-78" value="" style="endArrow=diamondThin;endFill=0;endSize=24;html=1;rounded=0;" parent="1" source="NMEEuWL-GFLA4NUDNVhm-46" target="NMEEuWL-GFLA4NUDNVhm-74" edge="1">
          <mxGeometry width="160" relative="1" as="geometry">
            <mxPoint x="1380" y="-120" as="sourcePoint" />
            <mxPoint x="1458.9999999999995" y="-201.35185185185173" as="targetPoint" />
          </mxGeometry>
        </mxCell>
        <mxCell id="NMEEuWL-GFLA4NUDNVhm-79" value="marker: char[]" style="html=1;whiteSpace=wrap;" parent="1" vertex="1">
          <mxGeometry x="1450" y="610" width="110" height="50" as="geometry" />
        </mxCell>
        <mxCell id="NMEEuWL-GFLA4NUDNVhm-80" value="ecoCoaLlikInf" style="swimlane;fontStyle=1;align=center;verticalAlign=top;childLayout=stackLayout;horizontal=1;startSize=26;horizontalStack=0;resizeParent=1;resizeParentMax=0;resizeLast=0;collapsible=1;marginBottom=0;whiteSpace=wrap;html=1;" parent="1" vertex="1">
          <mxGeometry x="1165" y="-840" width="181" height="60" as="geometry" />
        </mxCell>
        <mxCell id="NMEEuWL-GFLA4NUDNVhm-82" value="" style="line;strokeWidth=1;fillColor=none;align=left;verticalAlign=middle;spacingTop=-1;spacingLeft=3;spacingRight=3;rotatable=0;labelPosition=right;points=[];portConstraint=eastwest;strokeColor=inherit;" parent="NMEEuWL-GFLA4NUDNVhm-80" vertex="1">
          <mxGeometry y="26" width="181" height="8" as="geometry" />
        </mxCell>
        <mxCell id="NMEEuWL-GFLA4NUDNVhm-83" value="+ inferModel(): type" style="text;strokeColor=none;fillColor=none;align=left;verticalAlign=top;spacingLeft=4;spacingRight=4;overflow=hidden;rotatable=0;points=[[0,0.5],[1,0.5]];portConstraint=eastwest;whiteSpace=wrap;html=1;" parent="NMEEuWL-GFLA4NUDNVhm-80" vertex="1">
          <mxGeometry y="34" width="181" height="26" as="geometry" />
        </mxCell>
        <mxCell id="NMEEuWL-GFLA4NUDNVhm-85" value="" style="endArrow=diamondThin;endFill=0;endSize=24;html=1;rounded=0;" parent="1" source="NMEEuWL-GFLA4NUDNVhm-40" target="NMEEuWL-GFLA4NUDNVhm-4" edge="1">
          <mxGeometry width="160" relative="1" as="geometry">
            <mxPoint x="1314" y="400" as="sourcePoint" />
            <mxPoint x="919" y="90" as="targetPoint" />
          </mxGeometry>
        </mxCell>
        <mxCell id="NMEEuWL-GFLA4NUDNVhm-86" value="Extends" style="endArrow=block;endSize=16;endFill=0;html=1;rounded=0;" parent="1" source="NMEEuWL-GFLA4NUDNVhm-83" target="NMEEuWL-GFLA4NUDNVhm-56" edge="1">
          <mxGeometry width="160" relative="1" as="geometry">
            <mxPoint x="1284" y="-433" as="sourcePoint" />
            <mxPoint x="1274" y="-600" as="targetPoint" />
          </mxGeometry>
        </mxCell>
        <mxCell id="NMEEuWL-GFLA4NUDNVhm-87" value="" style="endArrow=diamondThin;endFill=0;endSize=24;html=1;rounded=0;" parent="1" source="NMEEuWL-GFLA4NUDNVhm-80" target="NMEEuWL-GFLA4NUDNVhm-70" edge="1">
          <mxGeometry width="160" relative="1" as="geometry">
            <mxPoint x="1303" y="-808.5" as="sourcePoint" />
            <mxPoint x="1353" y="-581.5" as="targetPoint" />
          </mxGeometry>
        </mxCell>
        <mxCell id="NMEEuWL-GFLA4NUDNVhm-88" value="mutationModel" style="swimlane;fontStyle=1;align=center;verticalAlign=top;childLayout=stackLayout;horizontal=1;startSize=26;horizontalStack=0;resizeParent=1;resizeParentMax=0;resizeLast=0;collapsible=1;marginBottom=0;whiteSpace=wrap;html=1;" parent="1" vertex="1">
          <mxGeometry x="1386" y="-840" width="160" height="60" as="geometry" />
        </mxCell>
        <mxCell id="NMEEuWL-GFLA4NUDNVhm-90" value="" style="line;strokeWidth=1;fillColor=none;align=left;verticalAlign=middle;spacingTop=-1;spacingLeft=3;spacingRight=3;rotatable=0;labelPosition=right;points=[];portConstraint=eastwest;strokeColor=inherit;" parent="NMEEuWL-GFLA4NUDNVhm-88" vertex="1">
          <mxGeometry y="26" width="160" height="8" as="geometry" />
        </mxCell>
        <mxCell id="NMEEuWL-GFLA4NUDNVhm-91" value="+ method(type): type" style="text;strokeColor=none;fillColor=none;align=left;verticalAlign=top;spacingLeft=4;spacingRight=4;overflow=hidden;rotatable=0;points=[[0,0.5],[1,0.5]];portConstraint=eastwest;whiteSpace=wrap;html=1;" parent="NMEEuWL-GFLA4NUDNVhm-88" vertex="1">
          <mxGeometry y="34" width="160" height="26" as="geometry" />
        </mxCell>
        <mxCell id="NMEEuWL-GFLA4NUDNVhm-92" value="" style="endArrow=diamondThin;endFill=0;endSize=24;html=1;rounded=0;" parent="1" source="NMEEuWL-GFLA4NUDNVhm-80" target="NMEEuWL-GFLA4NUDNVhm-88" edge="1">
          <mxGeometry width="160" relative="1" as="geometry">
            <mxPoint x="1409" y="-764" as="sourcePoint" />
            <mxPoint x="1353" y="-796" as="targetPoint" />
          </mxGeometry>
        </mxCell>
        <mxCell id="qsnxfp2OyxdYE0fEjemA-1" value="linearizedFstGenet" style="swimlane;fontStyle=1;align=center;verticalAlign=top;childLayout=stackLayout;horizontal=1;startSize=26;horizontalStack=0;resizeParent=1;resizeParentMax=0;resizeLast=0;collapsible=1;marginBottom=0;whiteSpace=wrap;html=1;" parent="1" vertex="1">
          <mxGeometry x="370" y="-1016" width="170" height="86" as="geometry" />
        </mxCell>
        <mxCell id="qsnxfp2OyxdYE0fEjemA-2" value="+ linearizedFst: float[,]" style="text;strokeColor=none;fillColor=none;align=left;verticalAlign=top;spacingLeft=4;spacingRight=4;overflow=hidden;rotatable=0;points=[[0,0.5],[1,0.5]];portConstraint=eastwest;whiteSpace=wrap;html=1;" parent="qsnxfp2OyxdYE0fEjemA-1" vertex="1">
          <mxGeometry y="26" width="170" height="26" as="geometry" />
        </mxCell>
        <mxCell id="qsnxfp2OyxdYE0fEjemA-3" value="" style="line;strokeWidth=1;fillColor=none;align=left;verticalAlign=middle;spacingTop=-1;spacingLeft=3;spacingRight=3;rotatable=0;labelPosition=right;points=[];portConstraint=eastwest;strokeColor=inherit;" parent="qsnxfp2OyxdYE0fEjemA-1" vertex="1">
          <mxGeometry y="52" width="170" height="8" as="geometry" />
        </mxCell>
        <mxCell id="qsnxfp2OyxdYE0fEjemA-4" value="+ linearizedFstFunction: float" style="text;strokeColor=none;fillColor=none;align=left;verticalAlign=top;spacingLeft=4;spacingRight=4;overflow=hidden;rotatable=0;points=[[0,0.5],[1,0.5]];portConstraint=eastwest;whiteSpace=wrap;html=1;" parent="qsnxfp2OyxdYE0fEjemA-1" vertex="1">
          <mxGeometry y="60" width="170" height="26" as="geometry" />
        </mxCell>
        <mxCell id="qsnxfp2OyxdYE0fEjemA-5" value="Extends" style="endArrow=block;endSize=16;endFill=0;html=1;rounded=0;" parent="1" source="qsnxfp2OyxdYE0fEjemA-1" target="c0SSLgtnGO3cboPd4Nja-11" edge="1">
          <mxGeometry x="0.0502" y="29" width="160" relative="1" as="geometry">
            <mxPoint x="414" y="-724.49" as="sourcePoint" />
            <mxPoint x="574" y="-724.49" as="targetPoint" />
            <Array as="points" />
            <mxPoint as="offset" />
          </mxGeometry>
        </mxCell>
        <mxCell id="qsnxfp2OyxdYE0fEjemA-7" value="" style="endArrow=diamondThin;endFill=0;endSize=24;html=1;rounded=0;" parent="1" source="c0SSLgtnGO3cboPd4Nja-23" target="qsnxfp2OyxdYE0fEjemA-1" edge="1">
          <mxGeometry width="160" relative="1" as="geometry">
            <mxPoint x="470" y="-690" as="sourcePoint" />
            <mxPoint x="630" y="-690" as="targetPoint" />
          </mxGeometry>
        </mxCell>
        <mxCell id="qsnxfp2OyxdYE0fEjemA-10" value="Extends" style="endArrow=block;endSize=16;endFill=0;html=1;rounded=0;" parent="1" source="c0SSLgtnGO3cboPd4Nja-26" target="_K4OWj6VhO3JEERv6Nd--6" edge="1">
          <mxGeometry width="160" relative="1" as="geometry">
            <mxPoint x="150" y="-800" as="sourcePoint" />
            <mxPoint x="310" y="-800" as="targetPoint" />
          </mxGeometry>
        </mxCell>
        <mxCell id="49uFMA6zL0cVl0Q6PZ_X-6" value="ecoCoalSim" style="swimlane;fontStyle=1;align=center;verticalAlign=top;childLayout=stackLayout;horizontal=1;startSize=26;horizontalStack=0;resizeParent=1;resizeParentMax=0;resizeLast=0;collapsible=1;marginBottom=0;whiteSpace=wrap;html=1;" parent="1" vertex="1">
          <mxGeometry x="89" y="-402" width="200" height="80" as="geometry" />
        </mxCell>
        <mxCell id="49uFMA6zL0cVl0Q6PZ_X-7" value="&lt;div&gt;+ coalescent: genealogy&lt;/div&gt;&lt;div&gt;&lt;br&gt;&lt;div&gt;&lt;br&gt;&lt;br&gt;&lt;/div&gt;&lt;/div&gt;" style="text;strokeColor=none;fillColor=none;align=left;verticalAlign=top;spacingLeft=4;spacingRight=4;overflow=hidden;rotatable=0;points=[[0,0.5],[1,0.5]];portConstraint=eastwest;whiteSpace=wrap;html=1;" parent="49uFMA6zL0cVl0Q6PZ_X-6" vertex="1">
          <mxGeometry y="26" width="200" height="24" as="geometry" />
        </mxCell>
        <mxCell id="49uFMA6zL0cVl0Q6PZ_X-8" value="" style="line;strokeWidth=1;fillColor=none;align=left;verticalAlign=middle;spacingTop=-1;spacingLeft=3;spacingRight=3;rotatable=0;labelPosition=right;points=[];portConstraint=eastwest;strokeColor=inherit;" parent="49uFMA6zL0cVl0Q6PZ_X-6" vertex="1">
          <mxGeometry y="50" width="200" height="8" as="geometry" />
        </mxCell>
        <mxCell id="49uFMA6zL0cVl0Q6PZ_X-9" value="&lt;div&gt;+ simulCoal(): genealogy&lt;br&gt;&lt;/div&gt;" style="text;strokeColor=none;fillColor=none;align=left;verticalAlign=top;spacingLeft=4;spacingRight=4;overflow=hidden;rotatable=0;points=[[0,0.5],[1,0.5]];portConstraint=eastwest;whiteSpace=wrap;html=1;" parent="49uFMA6zL0cVl0Q6PZ_X-6" vertex="1">
          <mxGeometry y="58" width="200" height="22" as="geometry" />
        </mxCell>
        <mxCell id="49uFMA6zL0cVl0Q6PZ_X-11" value="Extends" style="endArrow=block;endSize=16;endFill=0;html=1;rounded=0;" parent="1" source="_K4OWj6VhO3JEERv6Nd--1" target="49uFMA6zL0cVl0Q6PZ_X-6" edge="1">
          <mxGeometry width="160" relative="1" as="geometry">
            <mxPoint x="190.90204748420825" y="-510" as="sourcePoint" />
            <mxPoint x="187.09999999999997" y="-437.27" as="targetPoint" />
            <Array as="points" />
          </mxGeometry>
        </mxCell>
        <mxCell id="49uFMA6zL0cVl0Q6PZ_X-13" value="" style="endArrow=diamondThin;endFill=0;endSize=24;html=1;rounded=0;" parent="1" source="c0SSLgtnGO3cboPd4Nja-6" target="c0SSLgtnGO3cboPd4Nja-11" edge="1">
          <mxGeometry width="160" relative="1" as="geometry">
            <mxPoint x="624" y="-536" as="sourcePoint" />
            <mxPoint x="414" y="-475" as="targetPoint" />
          </mxGeometry>
        </mxCell>
        <mxCell id="49uFMA6zL0cVl0Q6PZ_X-14" value="" style="endArrow=diamondThin;endFill=0;endSize=24;html=1;rounded=0;" parent="1" source="_K4OWj6VhO3JEERv6Nd--1" target="c0SSLgtnGO3cboPd4Nja-18" edge="1">
          <mxGeometry width="160" relative="1" as="geometry">
            <mxPoint x="299" y="-537" as="sourcePoint" />
            <mxPoint x="354" y="-519" as="targetPoint" />
          </mxGeometry>
        </mxCell>
        <mxCell id="49uFMA6zL0cVl0Q6PZ_X-16" value="Extends" style="endArrow=block;endSize=16;endFill=0;html=1;rounded=0;" parent="1" source="_K4OWj6VhO3JEERv6Nd--6" target="_K4OWj6VhO3JEERv6Nd--1" edge="1">
          <mxGeometry width="160" relative="1" as="geometry">
            <mxPoint x="199" y="-510" as="sourcePoint" />
            <mxPoint x="199" y="-392" as="targetPoint" />
            <Array as="points" />
          </mxGeometry>
        </mxCell>
        <mxCell id="49uFMA6zL0cVl0Q6PZ_X-17" value="Extends" style="endArrow=block;endSize=16;endFill=0;html=1;rounded=0;" parent="1" source="49uFMA6zL0cVl0Q6PZ_X-6" target="mUlPBs0OehojVBWcTJut-1" edge="1">
          <mxGeometry width="160" relative="1" as="geometry">
            <mxPoint x="199" y="-510" as="sourcePoint" />
            <mxPoint x="199" y="-392" as="targetPoint" />
            <Array as="points" />
          </mxGeometry>
        </mxCell>
        <mxCell id="49uFMA6zL0cVl0Q6PZ_X-23" value="prior" style="swimlane;fontStyle=1;align=center;verticalAlign=top;childLayout=stackLayout;horizontal=1;startSize=26;horizontalStack=0;resizeParent=1;resizeParentMax=0;resizeLast=0;collapsible=1;marginBottom=0;whiteSpace=wrap;html=1;" parent="1" vertex="1">
          <mxGeometry x="440.5" y="110" width="160" height="110" as="geometry" />
        </mxCell>
        <mxCell id="49uFMA6zL0cVl0Q6PZ_X-24" value="&lt;div&gt;&lt;div&gt;+ hyperP= float[]&lt;/div&gt;&lt;div&gt;+ shapeHyperP=&quot;caracter&quot;&lt;/div&gt;&lt;/div&gt;&lt;div&gt;&lt;br&gt;&lt;/div&gt;&lt;div&gt;&lt;br&gt;&lt;div&gt;&lt;br&gt;&lt;br&gt;&lt;/div&gt;&lt;/div&gt;" style="text;strokeColor=none;fillColor=none;align=left;verticalAlign=top;spacingLeft=4;spacingRight=4;overflow=hidden;rotatable=0;points=[[0,0.5],[1,0.5]];portConstraint=eastwest;whiteSpace=wrap;html=1;" parent="49uFMA6zL0cVl0Q6PZ_X-23" vertex="1">
          <mxGeometry y="26" width="160" height="44" as="geometry" />
        </mxCell>
        <mxCell id="49uFMA6zL0cVl0Q6PZ_X-25" value="" style="line;strokeWidth=1;fillColor=none;align=left;verticalAlign=middle;spacingTop=-1;spacingLeft=3;spacingRight=3;rotatable=0;labelPosition=right;points=[];portConstraint=eastwest;strokeColor=inherit;" parent="49uFMA6zL0cVl0Q6PZ_X-23" vertex="1">
          <mxGeometry y="70" width="160" height="8" as="geometry" />
        </mxCell>
        <mxCell id="49uFMA6zL0cVl0Q6PZ_X-26" value="+ samplePrior(): float[]" style="text;strokeColor=none;fillColor=none;align=left;verticalAlign=top;spacingLeft=4;spacingRight=4;overflow=hidden;rotatable=0;points=[[0,0.5],[1,0.5]];portConstraint=eastwest;whiteSpace=wrap;html=1;" parent="49uFMA6zL0cVl0Q6PZ_X-23" vertex="1">
          <mxGeometry y="78" width="160" height="32" as="geometry" />
        </mxCell>
        <mxCell id="49uFMA6zL0cVl0Q6PZ_X-40" value="" style="endArrow=diamondThin;endFill=0;endSize=24;html=1;rounded=0;" parent="1" source="euh3f-BjxaFIM77-lD3N-23" target="49uFMA6zL0cVl0Q6PZ_X-23" edge="1">
          <mxGeometry width="160" relative="1" as="geometry">
            <mxPoint x="400.50662251655626" y="150" as="sourcePoint" />
            <mxPoint x="482.75" y="100" as="targetPoint" />
          </mxGeometry>
        </mxCell>
        <mxCell id="49uFMA6zL0cVl0Q6PZ_X-42" value="" style="endArrow=diamondThin;endFill=0;endSize=24;html=1;rounded=0;" parent="1" source="fhYH8X8L3PKGoM4BoWbg-6" target="49uFMA6zL0cVl0Q6PZ_X-23" edge="1">
          <mxGeometry width="160" relative="1" as="geometry">
            <mxPoint x="670.3973214285713" y="116" as="sourcePoint" />
            <mxPoint x="540" y="103.94324853228954" as="targetPoint" />
          </mxGeometry>
        </mxCell>
        <mxCell id="49uFMA6zL0cVl0Q6PZ_X-47" value="" style="endArrow=diamondThin;endFill=0;endSize=24;html=1;rounded=0;" parent="1" source="euh3f-BjxaFIM77-lD3N-5" target="49uFMA6zL0cVl0Q6PZ_X-23" edge="1">
          <mxGeometry width="160" relative="1" as="geometry">
            <mxPoint x="652" y="65" as="sourcePoint" />
            <mxPoint x="587" y="140" as="targetPoint" />
          </mxGeometry>
        </mxCell>
        <mxCell id="p2oHHvUrFkdRGudEggFB-5" value="" style="endArrow=diamondThin;endFill=0;endSize=24;html=1;rounded=0;exitX=0.168;exitY=0;exitDx=0;exitDy=0;exitPerimeter=0;" edge="1" parent="1" source="euh3f-BjxaFIM77-lD3N-28" target="c0SSLgtnGO3cboPd4Nja-11">
          <mxGeometry width="160" relative="1" as="geometry">
            <mxPoint x="50" y="-120" as="sourcePoint" />
            <mxPoint x="411" y="-737" as="targetPoint" />
            <Array as="points">
              <mxPoint x="50" y="-1090" />
              <mxPoint x="600" y="-1090" />
              <mxPoint x="600" y="-790" />
            </Array>
          </mxGeometry>
        </mxCell>
      </root>
    </mxGraphModel>
  </diagram>
</mxfile>
